<svg width="80" height="81" viewBox="0 0 80 81" fill="none" xmlns="http://www.w3.org/2000/svg">
<rect x="0.5" y="1.2395" width="79" height="79" rx="19.4726" stroke="#8BC84A"/>
<rect x="8" y="8.7395" width="64" height="64" rx="16.0274" fill="#8BC84A"/>
<path d="M38.362 21.1655C38.8623 20.8858 39.4258 20.7389 39.999 20.7389C40.5722 20.7389 41.1358 20.8858 41.636 21.1655L56.594 29.6155C57.0627 29.8823 57.453 30.2675 57.7261 30.7326C57.9992 31.1976 58.1453 31.7262 58.15 32.2655V49.2155C58.1408 49.7756 57.9806 50.3228 57.6864 50.7994C57.3921 51.276 56.9746 51.6644 56.478 51.9235L41.574 60.3315C41.0644 60.6132 40.4885 60.7532 39.9065 60.7371C39.3244 60.7209 38.7572 60.5491 38.264 60.2395L33.792 57.6555C33.4646 57.5092 33.1706 57.2975 32.928 57.0335C33.118 56.7775 33.458 56.7455 33.734 56.6335C34.3471 56.4145 34.9383 56.1386 35.5 55.8095C35.5707 55.7678 35.6523 55.7482 35.7343 55.7532C35.8162 55.7582 35.8948 55.7875 35.96 55.8375C37.232 56.5675 38.494 57.3195 39.774 58.0435C40.046 58.2015 40.322 57.9915 40.554 57.8635C45.4313 55.1062 50.3093 52.3528 55.188 49.6035C55.275 49.5601 55.347 49.4914 55.3944 49.4065C55.4419 49.3216 55.4626 49.2244 55.454 49.1275C55.458 43.5368 55.4587 37.9455 55.456 32.3535C55.4648 32.2449 55.4394 32.1362 55.3835 32.0426C55.3276 31.9491 55.2438 31.8753 55.144 31.8315C50.192 29.0422 45.2413 26.2515 40.292 23.4595C40.2061 23.4005 40.1043 23.3689 40 23.3689C39.8958 23.3689 39.794 23.4005 39.708 23.4595C34.7573 26.2488 29.808 29.0402 24.86 31.8335C24.7596 31.8761 24.6752 31.9493 24.6188 32.0427C24.5624 32.136 24.5369 32.2448 24.546 32.3535V49.1275C24.5376 49.2241 24.5589 49.3209 24.6072 49.4049C24.6555 49.489 24.7283 49.5562 24.816 49.5975C26.136 50.3468 27.458 51.0935 28.782 51.8375C29.1487 52.0642 29.5592 52.211 29.9866 52.2682C30.4139 52.3254 30.8485 52.2918 31.262 52.1695C31.6209 52.0345 31.9299 51.793 32.1476 51.4773C32.3653 51.1616 32.4813 50.787 32.48 50.4035C32.486 44.8435 32.476 39.2835 32.484 33.7275C32.4827 33.6685 32.4938 33.6099 32.5166 33.5555C32.5394 33.5011 32.5734 33.4521 32.6165 33.4117C32.6595 33.3713 32.7105 33.3405 32.7663 33.3211C32.822 33.3018 32.8812 33.2944 32.94 33.2995C33.576 33.2955 34.21 33.2915 34.846 33.3015C34.9078 33.3044 34.9682 33.3203 35.0234 33.3481C35.0787 33.376 35.1274 33.4151 35.1664 33.4631C35.2055 33.511 35.234 33.5666 35.2501 33.6263C35.2663 33.686 35.2696 33.7484 35.26 33.8095C35.258 39.4035 35.266 44.9975 35.256 50.5895C35.2987 51.3497 35.1365 52.1074 34.7865 52.7835C34.4364 53.4597 33.9114 54.0295 33.266 54.4335C32.4042 54.835 31.4607 55.0305 30.5103 55.0045C29.5599 54.9784 28.6286 54.7316 27.79 54.2835C26.336 53.5575 24.95 52.7035 23.524 51.9235C23.0274 51.6646 22.6099 51.2763 22.316 50.7996C22.022 50.3229 21.8624 49.7755 21.854 49.2155V32.2655C21.8583 31.7154 22.0096 31.1764 22.2924 30.7045C22.5751 30.2325 22.9789 29.8448 23.462 29.5815C28.43 26.7775 33.3973 23.9722 38.364 21.1655H38.362Z" fill="white"/>
<path d="M42.6959 32.9055C44.8912 32.6219 47.1221 32.9637 49.1319 33.8915C49.8602 34.326 50.4623 34.9432 50.8787 35.682C51.2951 36.4207 51.5113 37.2555 51.5059 38.1035C51.4777 38.2096 51.4123 38.302 51.3215 38.3637C51.2308 38.4254 51.1209 38.4523 51.0119 38.4395C50.3819 38.4395 49.7539 38.4475 49.1259 38.4355C49.0046 38.4281 48.8906 38.3755 48.8062 38.2881C48.7218 38.2008 48.6731 38.085 48.6699 37.9635C48.5985 37.5529 48.4386 37.1628 48.2014 36.8202C47.9641 36.4776 47.6551 36.1907 47.2959 35.9795C46.1002 35.5043 44.8089 35.3193 43.5279 35.4395C42.5837 35.4102 41.6499 35.6427 40.8299 36.1115C40.5474 36.3306 40.3408 36.6326 40.2389 36.9752C40.137 37.3178 40.145 37.6837 40.2619 38.0215C40.4639 38.5015 41.0179 38.6555 41.4719 38.7975C44.0839 39.4815 46.8519 39.4135 49.4119 40.3115C49.9619 40.4646 50.4695 40.7415 50.8959 41.1212C51.3223 41.5008 51.6562 41.9729 51.8719 42.5015C52.1285 43.2511 52.1905 44.0537 52.052 44.8338C51.9134 45.614 51.5789 46.3461 51.0799 46.9615C50.177 47.8996 49.0037 48.5324 47.7239 48.7715C46.0571 49.1102 44.3474 49.1831 42.6579 48.9875C41.0364 48.8944 39.482 48.3091 38.2019 47.3095C37.6948 46.8436 37.2968 46.2715 37.0365 45.6339C36.7761 44.9964 36.6598 44.3092 36.6959 43.6215C36.7084 43.5112 36.764 43.4103 36.8505 43.3407C36.937 43.271 37.0474 43.2383 37.1579 43.2495C37.7919 43.2435 38.4239 43.2415 39.0579 43.2495C39.1165 43.2485 39.1748 43.259 39.2293 43.2806C39.2838 43.3022 39.3336 43.3344 39.3756 43.3753C39.4176 43.4162 39.4511 43.465 39.4742 43.519C39.4972 43.5729 39.5093 43.6309 39.5099 43.6895C39.541 44.0816 39.6522 44.4631 39.8366 44.8106C40.021 45.158 40.2746 45.4639 40.5819 45.7095C41.9374 46.3766 43.4522 46.6523 44.9559 46.5055C46.2148 46.6016 47.4716 46.2941 48.5439 45.6275C48.791 45.3866 48.9708 45.0852 49.0655 44.7533C49.1602 44.4215 49.1666 44.0706 49.0839 43.7355C48.9279 43.1755 48.3439 42.9155 47.8419 42.7455C45.2619 41.9295 42.4659 42.2255 39.9119 41.3055C39.3762 41.1484 38.8811 40.8769 38.4605 40.5099C38.04 40.1428 37.704 39.689 37.4759 39.1795C37.1826 38.4198 37.1084 37.593 37.2619 36.7932C37.4153 35.9934 37.7902 35.2528 38.3439 34.6555C39.5506 33.5899 41.0873 32.972 42.6959 32.9055Z" fill="white"/>
</svg>
