<svg width="80" height="81" viewBox="0 0 80 81" fill="none" xmlns="http://www.w3.org/2000/svg">
<rect x="0.5" y="1.2395" width="79" height="79" rx="19.4726" stroke="#007ACC"/>
<rect x="8" y="8.7395" width="64" height="64" rx="16.0274" fill="#007ACC"/>
<path d="M22 22.7395H58V58.7395H22V22.7395ZM43.42 52.4595C44.42 54.4195 46.44 55.9195 49.6 55.9195C52.8 55.9195 55.2 54.2595 55.2 51.1995C55.2 48.3795 53.58 47.1195 50.7 45.8795L49.86 45.5195C48.4 44.8995 47.78 44.4795 47.78 43.4795C47.78 42.6595 48.4 42.0195 49.4 42.0195C50.36 42.0195 51 42.4395 51.58 43.4795L54.2 41.7395C53.1 39.8195 51.54 39.0795 49.4 39.0795C46.38 39.0795 44.44 40.9995 44.44 43.5395C44.44 46.2995 46.06 47.5995 48.5 48.6395L49.34 48.9995C50.9 49.6795 51.82 50.0995 51.82 51.2595C51.82 52.2195 50.92 52.9195 49.52 52.9195C47.86 52.9195 46.9 52.0595 46.18 50.8595L43.42 52.4595ZM42 39.2395H32V42.2395H35V56.7395H38.5V42.2395H42V39.2395Z" fill="white"/>
</svg>
