<svg width="80" height="81" viewBox="0 0 80 81" fill="none" xmlns="http://www.w3.org/2000/svg">
<rect x="0.5" y="1.2395" width="79" height="79" rx="19.4726" stroke="#36383A"/>
<rect x="8" y="8.7395" width="64" height="64" rx="16.0274" fill="#36383A"/>
<path d="M40 20.7395C37.3736 20.7395 34.7728 21.2568 32.3463 22.2619C29.9198 23.267 27.715 24.7402 25.8579 26.5974C22.1071 30.3481 20 35.4352 20 40.7395C20 49.5795 25.74 57.0795 33.68 59.7395C34.68 59.8995 35 59.2795 35 58.7395V55.3595C29.46 56.5595 28.28 52.6795 28.28 52.6795C27.36 50.3595 26.06 49.7395 26.06 49.7395C24.24 48.4995 26.2 48.5395 26.2 48.5395C28.2 48.6795 29.26 50.5995 29.26 50.5995C31 53.6395 33.94 52.7395 35.08 52.2595C35.26 50.9595 35.78 50.0795 36.34 49.5795C31.9 49.0795 27.24 47.3595 27.24 39.7395C27.24 37.5195 28 35.7395 29.3 34.3195C29.1 33.8195 28.4 31.7395 29.5 29.0395C29.5 29.0395 31.18 28.4995 35 31.0795C36.58 30.6395 38.3 30.4195 40 30.4195C41.7 30.4195 43.42 30.6395 45 31.0795C48.82 28.4995 50.5 29.0395 50.5 29.0395C51.6 31.7395 50.9 33.8195 50.7 34.3195C52 35.7395 52.76 37.5195 52.76 39.7395C52.76 47.3795 48.08 49.0595 43.62 49.5595C44.34 50.1795 45 51.3995 45 53.2595V58.7395C45 59.2795 45.32 59.9195 46.34 59.7395C54.28 57.0595 60 49.5795 60 40.7395C60 38.1131 59.4827 35.5123 58.4776 33.0858C57.4725 30.6593 55.9993 28.4545 54.1421 26.5974C52.285 24.7402 50.0802 23.267 47.6537 22.2619C45.2272 21.2568 42.6264 20.7395 40 20.7395Z" fill="white"/>
</svg>
