<svg width="80" height="81" viewBox="0 0 80 81" fill="none" xmlns="http://www.w3.org/2000/svg">
<rect x="0.5" y="1.2395" width="79" height="79" rx="19.4726" stroke="#61DBFB"/>
<rect x="8" y="8.7395" width="64" height="64" rx="16.0274" fill="#61DBFB"/>
<path d="M40 36.9595C42.06 36.9595 43.74 38.6395 43.74 40.7395C43.74 42.7395 42.06 44.4395 40 44.4395C37.94 44.4395 36.26 42.7395 36.26 40.7395C36.26 38.6395 37.94 36.9595 40 36.9595ZM30.74 56.7395C32 57.4995 34.76 56.3395 37.94 53.3395C36.9 52.1595 35.88 50.8795 34.92 49.5395C33.3083 49.3853 31.706 49.1449 30.12 48.8195C29.1 53.0995 29.48 56.0395 30.74 56.7395ZM32.16 45.2595L31.58 44.2395C31.36 44.8195 31.14 45.3995 31 45.9595C31.54 46.0795 32.14 46.1795 32.76 46.2795L32.16 45.2595ZM45.24 43.7395L46.86 40.7395L45.24 37.7395C44.64 36.6795 44 35.7395 43.42 34.7995C42.34 34.7395 41.2 34.7395 40 34.7395C38.8 34.7395 37.66 34.7395 36.58 34.7995C36 35.7395 35.36 36.6795 34.76 37.7395L33.14 40.7395L34.76 43.7395C35.36 44.7995 36 45.7395 36.58 46.6795C37.66 46.7395 38.8 46.7395 40 46.7395C41.2 46.7395 42.34 46.7395 43.42 46.6795C44 45.7395 44.64 44.7995 45.24 43.7395ZM40 30.2995C39.62 30.7395 39.22 31.1995 38.82 31.7395H41.18C40.78 31.1995 40.38 30.7395 40 30.2995ZM40 51.1795C40.38 50.7395 40.78 50.2795 41.18 49.7395H38.82C39.22 50.2795 39.62 50.7395 40 51.1795ZM49.24 24.7395C48 23.9795 45.24 25.1395 42.06 28.1395C43.1 29.3195 44.12 30.5995 45.08 31.9395C46.72 32.0995 48.34 32.3395 49.88 32.6595C50.9 28.3795 50.52 25.4395 49.24 24.7395ZM47.84 36.2195L48.42 37.2395C48.64 36.6595 48.86 36.0795 49 35.5195C48.46 35.3995 47.86 35.2995 47.24 35.1995L47.84 36.2195ZM50.74 22.1195C53.68 23.7995 54 28.2195 52.76 33.3795C57.84 34.8795 61.5 37.3595 61.5 40.7395C61.5 44.1195 57.84 46.5995 52.76 48.0995C54 53.2595 53.68 57.6795 50.74 59.3595C47.82 61.0395 43.84 59.1195 40 55.4595C36.16 59.1195 32.18 61.0395 29.24 59.3595C26.32 57.6795 26 53.2595 27.24 48.0995C22.16 46.5995 18.5 44.1195 18.5 40.7395C18.5 37.3595 22.16 34.8795 27.24 33.3795C26 28.2195 26.32 23.7995 29.24 22.1195C32.18 20.4395 36.16 22.3595 40 26.0195C43.84 22.3595 47.82 20.4395 50.74 22.1195ZM50.16 40.7395C50.84 42.2395 51.44 43.7395 51.94 45.2595C56.14 43.9995 58.5 42.1995 58.5 40.7395C58.5 39.2795 56.14 37.4795 51.94 36.2195C51.44 37.7395 50.84 39.2395 50.16 40.7395ZM29.84 40.7395C29.16 39.2395 28.56 37.7395 28.06 36.2195C23.86 37.4795 21.5 39.2795 21.5 40.7395C21.5 42.1995 23.86 43.9995 28.06 45.2595C28.56 43.7395 29.16 42.2395 29.84 40.7395ZM47.84 45.2595L47.24 46.2795C47.86 46.1795 48.46 46.0795 49 45.9595C48.86 45.3995 48.64 44.8195 48.42 44.2395L47.84 45.2595ZM42.06 53.3395C45.24 56.3395 48 57.4995 49.24 56.7395C50.52 56.0395 50.9 53.0995 49.88 48.8195C48.34 49.1395 46.72 49.3795 45.08 49.5395C44.12 50.8795 43.1 52.1595 42.06 53.3395ZM32.16 36.2195L32.76 35.1995C32.14 35.2995 31.54 35.3995 31 35.5195C31.14 36.0795 31.36 36.6595 31.58 37.2395L32.16 36.2195ZM37.94 28.1395C34.76 25.1395 32 23.9795 30.74 24.7395C29.48 25.4395 29.1 28.3795 30.12 32.6595C31.706 32.3341 33.3083 32.0937 34.92 31.9395C35.88 30.5995 36.9 29.3195 37.94 28.1395Z" fill="white"/>
</svg>
