<svg width="80" height="81" viewBox="0 0 80 81" fill="none" xmlns="http://www.w3.org/2000/svg">
<rect x="0.5" y="1.2395" width="79" height="79" rx="19.4726" stroke="#F1502F"/>
<rect x="8" y="8.7395" width="64" height="64" rx="16.0274" fill="#F1502F"/>
<path d="M21.2001 37.9195L32.7601 26.3395L36.1401 29.7395C35.6601 31.4395 36.4401 33.2995 38.0001 34.1995V45.2795C36.8001 45.9595 36.0001 47.2595 36.0001 48.7395C36.0001 49.8004 36.4216 50.8178 37.1717 51.5679C37.9219 52.3181 38.9393 52.7395 40.0001 52.7395C41.061 52.7395 42.0784 52.3181 42.8286 51.5679C43.5787 50.8178 44.0001 49.8004 44.0001 48.7395C44.0001 47.2595 43.2001 45.9595 42.0001 45.2795V35.5595L46.1401 39.7395C46.0001 40.0395 46.0001 40.3795 46.0001 40.7395C46.0001 41.8004 46.4216 42.8178 47.1717 43.5679C47.9219 44.3181 48.9393 44.7395 50.0001 44.7395C51.061 44.7395 52.0784 44.3181 52.8286 43.5679C53.5787 42.8178 54.0001 41.8004 54.0001 40.7395C54.0001 39.6787 53.5787 38.6612 52.8286 37.9111C52.0784 37.1609 51.061 36.7395 50.0001 36.7395C49.6401 36.7395 49.3001 36.7395 49.0001 36.8795L43.8601 31.7395C44.1085 30.8132 44.0122 29.8282 43.5892 28.9675C43.1662 28.1068 42.4452 27.4288 41.5601 27.0595C40.7001 26.7395 39.8001 26.6595 39.0001 26.8795L35.6001 23.4995L37.1801 21.9395C38.7401 20.3595 41.2601 20.3595 42.8201 21.9395L58.8001 37.9195C60.3801 39.4795 60.3801 41.9995 58.8001 43.5595L42.8201 59.5395C41.2601 61.1195 38.7401 61.1195 37.1801 59.5395L21.2001 43.5595C19.6201 41.9995 19.6201 39.4795 21.2001 37.9195Z" fill="white"/>
</svg>
