<svg width="80" height="81" viewBox="0 0 80 81" fill="none" xmlns="http://www.w3.org/2000/svg">
<rect x="0.5" y="1.2395" width="79" height="79" rx="19.4726" stroke="#F7DF1E"/>
<rect x="8" y="8.7395" width="64" height="64" rx="16.0274" fill="#F7DF1E"/>
<g clip-path="url(#clip0_1727_29033)">
<path d="M15 16.7395H47V48.7395H15V16.7395Z" fill="#F7DF1E"/>
<path d="M15 16.7395H63V64.7395H15V16.7395Z" fill="#F7DF1E"/>
<path d="M27.621 56.8518L31.2942 54.6288C32.0029 55.8852 32.6475 56.9483 34.1938 56.9483C35.676 56.9483 36.6107 56.3686 36.6107 54.1133V38.7762H41.1214V54.1771C41.1214 58.849 38.3828 60.9756 34.3872 60.9756C30.7787 60.9756 28.6842 59.1068 27.6208 56.8514M43.5715 56.3684L47.2442 54.2419C48.2112 55.8209 49.4678 56.9808 51.6908 56.9808C53.56 56.9808 54.7517 56.0462 54.7517 54.7574C54.7517 53.2109 53.5274 52.663 51.4652 51.7611L50.3378 51.2774C47.0834 49.8923 44.9247 48.1523 44.9247 44.4792C44.9247 41.0959 47.5022 38.5182 51.5299 38.5182C54.3975 38.5182 56.4597 39.5172 57.9417 42.127L54.4294 44.3826C53.656 42.9972 52.8186 42.4495 51.5297 42.4495C50.2086 42.4495 49.3709 43.2872 49.3709 44.3826C49.3709 45.7358 50.2086 46.2839 52.1417 47.1216L53.2693 47.6048C57.1037 49.2483 59.2624 50.9236 59.2624 54.6931C59.2624 58.7532 56.0727 60.9762 51.7873 60.9762C47.5988 60.9762 44.8922 58.9786 43.5713 56.3686" fill="black"/>
</g>
<defs>
<clipPath id="clip0_1727_29033">
<rect width="48" height="48" fill="white" transform="translate(15 16.7395)"/>
</clipPath>
</defs>
</svg>
