<svg width="80" height="81" viewBox="0 0 80 81" fill="none" xmlns="http://www.w3.org/2000/svg">
<rect x="0.5" y="1.2395" width="79" height="79" rx="19.4726" stroke="#0078D7"/>
<rect x="8" y="8.7395" width="64" height="64" rx="16.0274" fill="#0078D7"/>
<path d="M50 49.6795V31.5195L38 40.5995M20.44 35.1195C20.1498 34.8091 19.985 34.4021 19.9776 33.9772C19.9702 33.5523 20.1207 33.1397 20.4 32.8195L22.8 30.5995C23.2 30.2395 24.18 30.0795 24.9 30.5995L31.74 35.8195L47.6 21.3195C48.24 20.6795 49.34 20.4195 50.6 21.0795L58.6 24.8995C59.32 25.3195 60 25.9795 60 27.1995V54.1995C60 54.9995 59.42 55.8595 58.8 56.1995L50 60.3995C49.36 60.6595 48.16 60.4195 47.74 59.9995L31.7 45.3995L24.9 50.5995C24.14 51.1195 23.2 50.9795 22.8 50.5995L20.4 48.3995C19.76 47.7395 19.84 46.6595 20.5 45.9995L26.5 40.5995" fill="white"/>
</svg>
