<svg xmlns="http://www.w3.org/2000/svg" xmlns:xlink="http://www.w3.org/1999/xlink" version="1.1" x="0" y="0" width="400" height="400"><svg xmlns="http://www.w3.org/2000/svg" xmlns:xlink="http://www.w3.org/1999/xlink" version="1.1" x="8" y="8" width="384" height="384"><g clip-path="url(#f6clipPath)"><circle  id="f6containerShape" cx="192" cy="192" r="192" stroke="#1A2A55" stroke-width="0" fill="#1A2A55" /><defs>
                <clipPath id="f6clipPath">
                    <use xlink:href="#f6containerShape" />
                </clipPath>
            </defs><svg x="0" y="0" width="384" height="384" viewBox="0 0 768 768"><path transform="rotate(17.838655714165714,276.585781134312,717.7822571459934)" fill="#FFF" stroke="#FFF" d="M274.24 723.86L272.42 723.86L272.42 710.59L277.80 710.59Q278.39 710.59 279.02 710.74Q279.65 710.90 280.19 711.34Q280.72 711.78 281.04 712.64Q281.36 713.51 281.36 714.93L281.36 714.93Q281.36 716.35 281.03 717.23Q280.70 718.12 280.16 718.58Q279.62 719.05 278.99 719.21Q278.36 719.38 277.78 719.38L277.78 719.38Q277.49 719.38 277.00 719.36Q276.50 719.34 275.96 719.30Q275.42 719.27 274.96 719.23Q274.49 719.20 274.24 719.16L274.24 719.16L274.24 723.86ZM274.24 712.21L274.24 717.76L277.53 717.76Q278.11 717.76 278.57 717.49Q279.02 717.23 279.29 716.63Q279.55 716.03 279.55 714.95L279.55 714.95Q279.55 713.89 279.29 713.29Q279.02 712.70 278.59 712.45Q278.16 712.21 277.64 712.21L277.64 712.21L274.24 712.21Z"/><path transform="rotate(15.870745912444994,288.1111324477268,721.2739756926742)" fill="#FFF" stroke="#FFF" d="M285.72 727.35L283.90 727.35L283.90 714.08L289.21 714.08Q289.89 714.08 290.53 714.24Q291.17 714.41 291.68 714.84Q292.18 715.27 292.47 716.05Q292.76 716.84 292.76 718.10L292.76 718.10Q292.76 719.12 292.54 719.81Q292.32 720.49 291.97 720.90Q291.62 721.30 291.20 721.51Q290.78 721.71 290.36 721.82L290.36 721.82L293.01 727.35L291.17 727.35L288.72 722.07Q288.45 722.07 288.07 722.07Q287.68 722.06 287.26 722.06Q286.83 722.06 286.43 722.04Q286.02 722.02 285.72 722.02L285.72 722.02L285.72 727.35ZM285.72 715.70L285.72 720.62L288.92 720.62Q289.35 720.62 289.71 720.52Q290.07 720.42 290.35 720.14Q290.63 719.86 290.79 719.37Q290.96 718.87 290.96 718.10L290.96 718.10Q290.96 717.34 290.79 716.87Q290.63 716.40 290.34 716.15Q290.06 715.90 289.70 715.80Q289.34 715.70 288.92 715.70L288.92 715.70L285.72 715.70Z"/><path transform="rotate(14.4969907556474,296.22458494632576,723.4758991624519)" fill="#FFF" stroke="#FFF" d="M297.13 729.55L295.32 729.55L295.32 716.28L297.13 716.28L297.13 729.55Z"/><path transform="rotate(12.97321383042269,305.2828960935786,725.6899576408205)" fill="#FFF" stroke="#FFF" d="M306.43 731.76L304.13 731.76L299.70 718.50L301.57 718.50L305.28 729.84L309.01 718.50L310.86 718.50L306.43 731.76Z"/><path transform="rotate(10.918501937276217,317.5843915463339,728.2925740612616)" fill="#FFF" stroke="#FFF" d="M313.88 734.37L312.00 734.37L316.43 721.10L318.74 721.10L323.16 734.37L321.27 734.37L320.10 730.89L315.03 730.89L313.88 734.37ZM317.57 722.69L315.46 729.26L319.65 729.26L317.57 722.69Z"/><path transform="rotate(8.913811128232572,329.668847723682,730.4051608915888)" fill="#FFF" stroke="#FFF" d="M330.14 736.59L330.14 736.59Q328.95 736.59 328.07 736.32Q327.18 736.05 326.59 735.34Q326.00 734.63 325.71 733.29Q325.42 731.94 325.42 729.80L325.42 729.80Q325.42 727.79 325.72 726.47Q326.01 725.16 326.62 724.42Q327.22 723.68 328.12 723.39Q329.02 723.11 330.21 723.11L330.21 723.11Q330.87 723.11 331.59 723.18Q332.30 723.25 332.95 723.37Q333.61 723.48 334.13 723.63L334.13 723.63L334.13 725.00Q333.81 724.94 333.25 724.88Q332.69 724.82 331.99 724.77Q331.29 724.73 330.53 724.73L330.53 724.73Q329.63 724.73 329.00 724.93Q328.37 725.14 327.98 725.69Q327.58 726.24 327.40 727.24Q327.22 728.24 327.22 729.82L327.22 729.82Q327.22 731.42 327.39 732.44Q327.56 733.46 327.94 734.01Q328.32 734.55 328.95 734.76Q329.58 734.97 330.51 734.97L330.51 734.97Q331.86 734.97 332.73 734.90Q333.59 734.82 334.13 734.75L334.13 734.75L334.13 736.14Q333.59 736.26 332.94 736.37Q332.30 736.48 331.59 736.53Q330.87 736.59 330.14 736.59Z"/><path transform="rotate(6.998838795847942,341.2747868307247,732.0272485878655)" fill="#FFF" stroke="#FFF" d="M342.18 738.10L340.37 738.10L340.37 733.82L336.23 724.84L338.12 724.84L341.30 731.98L344.51 724.84L346.32 724.84L342.18 733.82L342.18 738.10Z"/><path transform="rotate(5.78684669719707,348.6457046852552,732.8530971666983)" fill="#FFF" stroke="#FFF" d="M349.17 738.95L348.14 738.95Q347.84 738.95 347.84 738.64L347.84 738.64L347.84 737.07Q347.84 736.75 348.14 736.75L348.14 736.75L349.17 736.75Q349.49 736.75 349.49 737.07L349.49 737.07L349.49 738.64Q349.49 738.80 349.40 738.87Q349.31 738.95 349.17 738.95L349.17 738.95Z"/><path transform="rotate(4.420448841114042,356.97446724405364,733.5969539044315)" fill="#FFF" stroke="#FFF" d="M354.96 739.67L353.14 739.67L353.14 729.18Q353.14 728.39 353.38 727.85Q353.63 727.31 354.02 726.99Q354.42 726.68 354.91 726.54Q355.41 726.41 355.89 726.41L355.89 726.41Q356.63 726.42 357.57 726.43Q358.50 726.44 359.52 726.48Q360.54 726.51 361.49 726.60L361.49 726.60L361.49 728.08L356.34 728.08Q355.68 728.08 355.32 728.44Q354.96 728.80 354.96 729.48L354.96 729.48L354.96 732.56L360.68 732.67L360.68 734.07L354.96 734.18L354.96 739.67Z"/><path transform="rotate(2.617261127522049,367.98839627326953,734.2742327749761)" fill="#FFF" stroke="#FFF" d="M372.34 740.35L367.31 740.35Q366.47 740.35 365.83 740.09Q365.19 739.83 364.85 739.21Q364.51 738.59 364.51 737.54L364.51 737.54L364.51 727.08L366.32 727.08L366.32 737.27Q366.32 737.85 366.52 738.16Q366.72 738.48 367.04 738.59Q367.37 738.69 367.75 738.69L367.75 738.69L372.34 738.69L372.34 740.35Z"/><path transform="rotate(0.7390563923205039,379.4772314908334,734.6108300737621)" fill="#FFF" stroke="#FFF" d="M379.48 740.79L379.48 740.79Q378.18 740.79 377.20 740.54Q376.22 740.29 375.56 739.61Q374.91 738.92 374.58 737.59Q374.26 736.26 374.26 734.10L374.26 734.10Q374.26 731.94 374.58 730.60Q374.91 729.26 375.57 728.54Q376.24 727.83 377.21 727.57Q378.18 727.31 379.48 727.31L379.48 727.31Q380.81 727.31 381.79 727.57Q382.77 727.83 383.42 728.54Q384.07 729.26 384.39 730.60Q384.72 731.94 384.72 734.10L384.72 734.10Q384.72 736.26 384.39 737.59Q384.07 738.92 383.41 739.61Q382.75 740.29 381.77 740.54Q380.79 740.79 379.48 740.79ZM379.48 739.17L379.48 739.17Q380.41 739.17 381.07 738.98Q381.73 738.78 382.13 738.25Q382.54 737.72 382.72 736.72Q382.90 735.72 382.90 734.10L382.90 734.10Q382.90 732.39 382.71 731.36Q382.52 730.34 382.12 729.81Q381.73 729.29 381.07 729.11Q380.41 728.93 379.48 728.93L379.48 728.93Q378.60 728.93 377.95 729.11Q377.30 729.29 376.89 729.81Q376.47 730.34 376.26 731.36Q376.06 732.39 376.06 734.10L376.06 734.10Q376.06 735.72 376.23 736.72Q376.40 737.72 376.80 738.25Q377.21 738.78 377.87 738.98Q378.52 739.17 379.48 739.17Z"/><path transform="rotate(-1.8510514733001946,395.32613594088576,734.4570276719367)" fill="#FFF" stroke="#FFF" d="M392.17 740.53L390.26 740.53L386.93 727.27L388.80 727.27L391.43 737.96L394.45 727.27L396.22 727.27L399.22 737.96L401.87 727.27L403.72 727.27L400.39 740.53L398.49 740.53L395.34 729.84L392.17 740.53Z"/><path transform="rotate(-4.316142443196616,410.3890505390309,733.6455742772221)" fill="#FFF" stroke="#FFF" d="M410.86 739.83L410.86 739.83Q409.67 739.83 408.79 739.56Q407.91 739.29 407.31 738.58Q406.72 737.87 406.43 736.53Q406.14 735.18 406.14 733.04L406.14 733.04Q406.14 731.03 406.44 729.71Q406.74 728.40 407.34 727.66Q407.94 726.92 408.84 726.63Q409.74 726.35 410.93 726.35L410.93 726.35Q411.60 726.35 412.31 726.42Q413.02 726.49 413.67 726.61Q414.33 726.72 414.85 726.87L414.85 726.87L414.85 728.24Q414.53 728.18 413.97 728.12Q413.41 728.06 412.71 728.01Q412.01 727.97 411.25 727.97L411.25 727.97Q410.35 727.97 409.72 728.17Q409.09 728.38 408.70 728.93Q408.30 729.48 408.12 730.48Q407.94 731.48 407.94 733.06L407.94 733.06Q407.94 734.66 408.11 735.68Q408.28 736.70 408.66 737.25Q409.04 737.79 409.67 738.00Q410.30 738.21 411.24 738.21L411.24 738.21Q412.59 738.21 413.45 738.14Q414.31 738.06 414.85 737.99L414.85 737.99L414.85 739.38Q414.31 739.50 413.67 739.61Q413.02 739.72 412.31 739.77Q411.60 739.83 410.86 739.83Z"/><path transform="rotate(-6.304649749176705,422.5055225089356,732.5193457131381)" fill="#FFF" stroke="#FFF" d="M422.51 738.70L422.51 738.70Q421.21 738.70 420.23 738.45Q419.25 738.20 418.59 737.51Q417.93 736.83 417.61 735.50Q417.29 734.17 417.29 732.01L417.29 732.01Q417.29 729.85 417.61 728.51Q417.93 727.16 418.60 726.45Q419.27 725.74 420.24 725.48Q421.21 725.22 422.51 725.22L422.51 725.22Q423.84 725.22 424.82 725.48Q425.80 725.74 426.45 726.45Q427.10 727.16 427.42 728.51Q427.74 729.85 427.74 732.01L427.74 732.01Q427.74 734.17 427.42 735.50Q427.10 736.83 426.44 737.51Q425.78 738.20 424.80 738.45Q423.82 738.70 422.51 738.70ZM422.51 737.08L422.51 737.08Q423.44 737.08 424.10 736.88Q424.76 736.69 425.16 736.16Q425.57 735.62 425.75 734.63Q425.93 733.63 425.93 732.01L425.93 732.01Q425.93 730.30 425.74 729.27Q425.55 728.24 425.15 727.72Q424.76 727.20 424.10 727.02Q423.44 726.84 422.51 726.84L422.51 726.84Q421.62 726.84 420.98 727.02Q420.33 727.20 419.91 727.72Q419.50 728.24 419.29 729.27Q419.09 730.30 419.09 732.01L419.09 732.01Q419.09 733.63 419.26 734.63Q419.43 735.62 419.83 736.16Q420.24 736.69 420.89 736.88Q421.55 737.08 422.51 737.08Z"/><path transform="rotate(-8.49758359095537,435.8132663113355,730.7907078255566)" fill="#FFF" stroke="#FFF" d="M436.43 736.87L431.07 736.87L431.07 723.60L436.43 723.60Q437.68 723.60 438.52 724.05Q439.37 724.50 439.89 725.35Q440.41 726.21 440.65 727.44Q440.88 728.68 440.88 730.24L440.88 730.24Q440.88 732.37 440.39 733.84Q439.89 735.32 438.90 736.09Q437.91 736.87 436.43 736.87L436.43 736.87ZM432.89 725.22L432.89 735.25L436.27 735.25Q437.26 735.25 437.87 734.64Q438.49 734.04 438.77 732.91Q439.06 731.79 439.06 730.24L439.06 730.24Q439.06 728.82 438.90 727.86Q438.74 726.89 438.40 726.31Q438.05 725.72 437.52 725.47Q436.99 725.22 436.27 725.22L436.27 725.22L432.89 725.22Z"/><path transform="rotate(-10.52137937223762,448.0277072763666,728.7446334621206)" fill="#FFF" stroke="#FFF" d="M446.98 734.89L446.98 734.89Q446.53 734.89 446.03 734.81Q445.53 734.73 445.07 734.47Q444.61 734.21 444.32 733.67Q444.03 733.13 444.03 732.21L444.03 732.21L444.03 724.33Q444.03 723.53 444.27 722.99Q444.52 722.45 444.91 722.14Q445.31 721.82 445.80 721.69Q446.30 721.55 446.79 721.55L446.79 721.55Q447.96 721.57 448.94 721.60Q449.92 721.63 450.76 721.66Q451.61 721.70 452.38 721.73L452.38 721.73L452.38 723.23L447.27 723.23Q446.61 723.23 446.23 723.57Q445.85 723.91 445.85 724.65L445.85 724.65L445.85 727.40L451.57 727.51L451.57 728.92L445.85 729.04L445.85 731.76Q445.85 732.37 446.06 732.68Q446.26 732.98 446.60 733.09Q446.93 733.20 447.31 733.20L447.31 733.20L452.38 733.20L452.38 734.69Q451.56 734.75 450.64 734.79Q449.72 734.84 448.79 734.86Q447.87 734.89 446.98 734.89Z"/><path transform="rotate(-11.83483396596278,455.9131550401622,727.186403769394)" fill="#FFF" stroke="#FFF" d="M456.44 733.28L455.41 733.28Q455.10 733.28 455.10 732.97L455.10 732.97L455.10 731.41Q455.10 731.08 455.41 731.08L455.41 731.08L456.44 731.08Q456.76 731.08 456.76 731.41L456.76 731.41L456.76 732.97Q456.76 733.14 456.67 733.21Q456.58 733.28 456.44 733.28L456.44 733.28Z"/><path transform="rotate(-13.118877631455174,463.58553137951174,725.4887301142467)" fill="#FFF" stroke="#FFF" d="M464.05 731.67L464.05 731.67Q462.87 731.67 461.98 731.40Q461.10 731.13 460.51 730.42Q459.91 729.71 459.63 728.37Q459.34 727.03 459.34 724.89L459.34 724.89Q459.34 722.87 459.63 721.56Q459.93 720.24 460.53 719.50Q461.14 718.77 462.04 718.48Q462.94 718.19 464.13 718.19L464.13 718.19Q464.79 718.19 465.50 718.26Q466.21 718.33 466.87 718.45Q467.53 718.57 468.05 718.71L468.05 718.71L468.05 720.08Q467.73 720.03 467.17 719.96Q466.61 719.90 465.91 719.85Q465.21 719.81 464.45 719.81L464.45 719.81Q463.55 719.81 462.92 720.02Q462.29 720.22 461.89 720.77Q461.50 721.32 461.32 722.32Q461.14 723.32 461.14 724.90L461.14 724.90Q461.14 726.51 461.31 727.52Q461.48 728.54 461.86 729.09Q462.24 729.64 462.87 729.84Q463.50 730.05 464.43 730.05L464.43 730.05Q465.78 730.05 466.65 729.98Q467.51 729.91 468.05 729.84L468.05 729.84L468.05 731.22Q467.51 731.35 466.86 731.46Q466.21 731.56 465.50 731.62Q464.79 731.67 464.05 731.67Z"/><path transform="rotate(-15.107384937435263,475.38693421039363,722.5215471068647)" fill="#FFF" stroke="#FFF" d="M475.39 728.70L475.39 728.70Q474.09 728.70 473.11 728.45Q472.13 728.20 471.47 727.52Q470.81 726.83 470.49 725.50Q470.17 724.17 470.17 722.01L470.17 722.01Q470.17 719.85 470.49 718.51Q470.81 717.17 471.48 716.46Q472.15 715.74 473.12 715.48Q474.09 715.22 475.39 715.22L475.39 715.22Q476.72 715.22 477.70 715.48Q478.68 715.74 479.33 716.46Q479.98 717.17 480.30 718.51Q480.62 719.85 480.62 722.01L480.62 722.01Q480.62 724.17 480.30 725.50Q479.98 726.83 479.32 727.52Q478.66 728.20 477.68 728.45Q476.70 728.70 475.39 728.70ZM475.39 727.08L475.39 727.08Q476.32 727.08 476.98 726.89Q477.64 726.69 478.04 726.16Q478.45 725.63 478.63 724.63Q478.81 723.63 478.81 722.01L478.81 722.01Q478.81 720.30 478.62 719.27Q478.43 718.25 478.03 717.72Q477.64 717.20 476.98 717.02Q476.32 716.84 475.39 716.84L475.39 716.84Q474.50 716.84 473.86 717.02Q473.21 717.20 472.79 717.72Q472.38 718.25 472.17 719.27Q471.97 720.30 471.97 722.01L471.97 722.01Q471.97 723.63 472.14 724.63Q472.31 725.63 472.71 726.16Q473.12 726.69 473.78 726.89Q474.43 727.08 475.39 727.08Z"/><path transform="rotate(-17.475363196489063,489.2956771587426,718.456618968263)" fill="#FFF" stroke="#FFF" d="M484.35 724.53L482.60 724.53L484.11 711.27L485.91 711.27L489.30 722.34L492.63 711.27L494.44 711.27L495.99 724.53L494.25 724.53L492.95 713.48L493.26 713.52L490.12 724.53L488.45 724.53L485.26 713.52L485.59 713.50L484.35 724.53Z"/></svg><rect x="67" y="67" width="250" height="250" fill="#1A2A55"  shape-rendering="crispEdges"/><rect x="158.66666666666666" y="2" width="6.666666666666667" height="10" fill="#FFF" shape-rendering="crispEdges"/><rect x="188.66666666666666" y="2" width="6.666666666666667" height="10" fill="#FFF" shape-rendering="crispEdges"/><rect x="218.66666666666666" y="2" width="6.666666666666667" height="10" fill="#FFF" shape-rendering="crispEdges"/><rect x="228.66666666666666" y="2" width="6.666666666666667" height="10" fill="#FFF" shape-rendering="crispEdges"/><rect x="118.66666666666667" y="12" width="6.666666666666667" height="10" fill="#FFF" shape-rendering="crispEdges"/><rect x="168.66666666666666" y="12" width="6.666666666666667" height="10" fill="#FFF" shape-rendering="crispEdges"/><rect x="188.66666666666666" y="12" width="6.666666666666667" height="10" fill="#FFF" shape-rendering="crispEdges"/><rect x="198.66666666666666" y="12" width="6.666666666666667" height="10" fill="#FFF" shape-rendering="crispEdges"/><rect x="228.66666666666666" y="12" width="6.666666666666667" height="10" fill="#FFF" shape-rendering="crispEdges"/><rect x="258.6666666666667" y="12" width="6.666666666666667" height="10" fill="#FFF" shape-rendering="crispEdges"/><rect x="98.66666666666667" y="22" width="6.666666666666667" height="10" fill="#FFF" shape-rendering="crispEdges"/><rect x="108.66666666666667" y="22" width="6.666666666666667" height="10" fill="#FFF" shape-rendering="crispEdges"/><rect x="148.66666666666666" y="22" width="6.666666666666667" height="10" fill="#FFF" shape-rendering="crispEdges"/><rect x="178.66666666666666" y="22" width="6.666666666666667" height="10" fill="#FFF" shape-rendering="crispEdges"/><rect x="188.66666666666666" y="22" width="6.666666666666667" height="10" fill="#FFF" shape-rendering="crispEdges"/><rect x="198.66666666666666" y="22" width="6.666666666666667" height="10" fill="#FFF" shape-rendering="crispEdges"/><rect x="218.66666666666666" y="22" width="6.666666666666667" height="10" fill="#FFF" shape-rendering="crispEdges"/><rect x="238.66666666666666" y="22" width="6.666666666666667" height="10" fill="#FFF" shape-rendering="crispEdges"/><rect x="258.6666666666667" y="22" width="6.666666666666667" height="10" fill="#FFF" shape-rendering="crispEdges"/><rect x="268.6666666666667" y="22" width="6.666666666666667" height="10" fill="#FFF" shape-rendering="crispEdges"/><rect x="278.6666666666667" y="22" width="6.666666666666667" height="10" fill="#FFF" shape-rendering="crispEdges"/><rect x="88.66666666666667" y="32" width="6.666666666666667" height="10" fill="#FFF" shape-rendering="crispEdges"/><rect x="108.66666666666667" y="32" width="6.666666666666667" height="10" fill="#FFF" shape-rendering="crispEdges"/><rect x="118.66666666666667" y="32" width="6.666666666666667" height="10" fill="#FFF" shape-rendering="crispEdges"/><rect x="178.66666666666666" y="32" width="6.666666666666667" height="10" fill="#FFF" shape-rendering="crispEdges"/><rect x="228.66666666666666" y="32" width="6.666666666666667" height="10" fill="#FFF" shape-rendering="crispEdges"/><rect x="288.6666666666667" y="32" width="6.666666666666667" height="10" fill="#FFF" shape-rendering="crispEdges"/><rect x="68.66666666666667" y="42" width="6.666666666666667" height="10" fill="#FFF" shape-rendering="crispEdges"/><rect x="78.66666666666667" y="42" width="6.666666666666667" height="10" fill="#FFF" shape-rendering="crispEdges"/><rect x="88.66666666666667" y="42" width="6.666666666666667" height="10" fill="#FFF" shape-rendering="crispEdges"/><rect x="98.66666666666667" y="42" width="6.666666666666667" height="10" fill="#FFF" shape-rendering="crispEdges"/><rect x="108.66666666666667" y="42" width="6.666666666666667" height="10" fill="#FFF" shape-rendering="crispEdges"/><rect x="118.66666666666667" y="42" width="6.666666666666667" height="10" fill="#FFF" shape-rendering="crispEdges"/><rect x="128.66666666666666" y="42" width="6.666666666666667" height="10" fill="#FFF" shape-rendering="crispEdges"/><rect x="138.66666666666666" y="42" width="6.666666666666667" height="10" fill="#FFF" shape-rendering="crispEdges"/><rect x="158.66666666666666" y="42" width="6.666666666666667" height="10" fill="#FFF" shape-rendering="crispEdges"/><rect x="178.66666666666666" y="42" width="6.666666666666667" height="10" fill="#FFF" shape-rendering="crispEdges"/><rect x="208.66666666666666" y="42" width="6.666666666666667" height="10" fill="#FFF" shape-rendering="crispEdges"/><rect x="228.66666666666666" y="42" width="6.666666666666667" height="10" fill="#FFF" shape-rendering="crispEdges"/><rect x="258.6666666666667" y="42" width="6.666666666666667" height="10" fill="#FFF" shape-rendering="crispEdges"/><rect x="268.6666666666667" y="42" width="6.666666666666667" height="10" fill="#FFF" shape-rendering="crispEdges"/><rect x="308.6666666666667" y="42" width="6.666666666666667" height="10" fill="#FFF" shape-rendering="crispEdges"/><rect x="98.66666666666667" y="52" width="6.666666666666667" height="10" fill="#FFF" shape-rendering="crispEdges"/><rect x="108.66666666666667" y="52" width="6.666666666666667" height="10" fill="#FFF" shape-rendering="crispEdges"/><rect x="118.66666666666667" y="52" width="6.666666666666667" height="10" fill="#FFF" shape-rendering="crispEdges"/><rect x="128.66666666666666" y="52" width="6.666666666666667" height="10" fill="#FFF" shape-rendering="crispEdges"/><rect x="148.66666666666666" y="52" width="6.666666666666667" height="10" fill="#FFF" shape-rendering="crispEdges"/><rect x="168.66666666666666" y="52" width="6.666666666666667" height="10" fill="#FFF" shape-rendering="crispEdges"/><rect x="178.66666666666666" y="52" width="6.666666666666667" height="10" fill="#FFF" shape-rendering="crispEdges"/><rect x="208.66666666666666" y="52" width="6.666666666666667" height="10" fill="#FFF" shape-rendering="crispEdges"/><rect x="218.66666666666666" y="52" width="6.666666666666667" height="10" fill="#FFF" shape-rendering="crispEdges"/><rect x="268.6666666666667" y="52" width="6.666666666666667" height="10" fill="#FFF" shape-rendering="crispEdges"/><rect x="278.6666666666667" y="52" width="6.666666666666667" height="10" fill="#FFF" shape-rendering="crispEdges"/><rect x="298.6666666666667" y="52" width="6.666666666666667" height="10" fill="#FFF" shape-rendering="crispEdges"/><rect x="308.6666666666667" y="52" width="6.666666666666667" height="10" fill="#FFF" shape-rendering="crispEdges"/><rect x="43.666666666666664" y="62" width="6.666666666666667" height="15" fill="#FFF" shape-rendering="crispEdges"/><rect x="148.66666666666666" y="67" width="6.666666666666667" height="10" fill="#FFF" shape-rendering="crispEdges"/><rect x="158.66666666666666" y="67" width="6.666666666666667" height="10" fill="#FFF" shape-rendering="crispEdges"/><rect x="178.66666666666666" y="67" width="6.666666666666667" height="10" fill="#FFF" shape-rendering="crispEdges"/><rect x="188.66666666666666" y="67" width="6.666666666666667" height="10" fill="#FFF" shape-rendering="crispEdges"/><rect x="208.66666666666666" y="67" width="6.666666666666667" height="10" fill="#FFF" shape-rendering="crispEdges"/><rect x="228.66666666666666" y="67" width="6.666666666666667" height="10" fill="#FFF" shape-rendering="crispEdges"/><rect x="323.6666666666667" y="62" width="6.666666666666667" height="15" fill="#FFF" shape-rendering="crispEdges"/><rect x="333.6666666666667" y="67" width="6.666666666666667" height="10" fill="#FFF" shape-rendering="crispEdges"/><rect x="43.666666666666664" y="77" width="6.666666666666667" height="10" fill="#FFF" shape-rendering="crispEdges"/><rect x="53.666666666666664" y="77" width="6.666666666666667" height="10" fill="#FFF" shape-rendering="crispEdges"/><rect x="158.66666666666666" y="77" width="6.666666666666667" height="10" fill="#FFF" shape-rendering="crispEdges"/><rect x="178.66666666666666" y="77" width="6.666666666666667" height="10" fill="#FFF" shape-rendering="crispEdges"/><rect x="188.66666666666666" y="77" width="6.666666666666667" height="10" fill="#FFF" shape-rendering="crispEdges"/><rect x="198.66666666666666" y="77" width="6.666666666666667" height="10" fill="#FFF" shape-rendering="crispEdges"/><rect x="208.66666666666666" y="77" width="6.666666666666667" height="10" fill="#FFF" shape-rendering="crispEdges"/><rect x="333.6666666666667" y="77" width="6.666666666666667" height="10" fill="#FFF" shape-rendering="crispEdges"/><rect x="33.666666666666664" y="87" width="6.666666666666667" height="10" fill="#FFF" shape-rendering="crispEdges"/><rect x="43.666666666666664" y="87" width="6.666666666666667" height="10" fill="#FFF" shape-rendering="crispEdges"/><rect x="148.66666666666666" y="87" width="6.666666666666667" height="10" fill="#FFF" shape-rendering="crispEdges"/><rect x="198.66666666666666" y="87" width="6.666666666666667" height="10" fill="#FFF" shape-rendering="crispEdges"/><rect x="218.66666666666666" y="87" width="6.666666666666667" height="10" fill="#FFF" shape-rendering="crispEdges"/><rect x="333.6666666666667" y="87" width="6.666666666666667" height="10" fill="#FFF" shape-rendering="crispEdges"/><rect x="343.6666666666667" y="87" width="6.666666666666667" height="10" fill="#FFF" shape-rendering="crispEdges"/><rect x="23.666666666666668" y="97" width="6.666666666666667" height="10" fill="#FFF" shape-rendering="crispEdges"/><rect x="33.666666666666664" y="97" width="6.666666666666667" height="10" fill="#FFF" shape-rendering="crispEdges"/><rect x="43.666666666666664" y="97" width="6.666666666666667" height="10" fill="#FFF" shape-rendering="crispEdges"/><rect x="53.666666666666664" y="97" width="6.666666666666667" height="10" fill="#FFF" shape-rendering="crispEdges"/><rect x="168.66666666666666" y="97" width="6.666666666666667" height="10" fill="#FFF" shape-rendering="crispEdges"/><rect x="198.66666666666666" y="97" width="6.666666666666667" height="10" fill="#FFF" shape-rendering="crispEdges"/><rect x="208.66666666666666" y="97" width="6.666666666666667" height="10" fill="#FFF" shape-rendering="crispEdges"/><rect x="228.66666666666666" y="97" width="6.666666666666667" height="10" fill="#FFF" shape-rendering="crispEdges"/><rect x="343.6666666666667" y="97" width="6.666666666666667" height="10" fill="#FFF" shape-rendering="crispEdges"/><rect x="353.6666666666667" y="97" width="6.666666666666667" height="10" fill="#FFF" shape-rendering="crispEdges"/><rect x="23.666666666666668" y="107" width="6.666666666666667" height="10" fill="#FFF" shape-rendering="crispEdges"/><rect x="43.666666666666664" y="107" width="6.666666666666667" height="10" fill="#FFF" shape-rendering="crispEdges"/><rect x="53.666666666666664" y="107" width="6.666666666666667" height="10" fill="#FFF" shape-rendering="crispEdges"/><rect x="168.66666666666666" y="107" width="6.666666666666667" height="10" fill="#FFF" shape-rendering="crispEdges"/><rect x="178.66666666666666" y="107" width="6.666666666666667" height="10" fill="#FFF" shape-rendering="crispEdges"/><rect x="188.66666666666666" y="107" width="6.666666666666667" height="10" fill="#FFF" shape-rendering="crispEdges"/><rect x="198.66666666666666" y="107" width="6.666666666666667" height="10" fill="#FFF" shape-rendering="crispEdges"/><rect x="208.66666666666666" y="107" width="6.666666666666667" height="10" fill="#FFF" shape-rendering="crispEdges"/><rect x="323.6666666666667" y="107" width="6.666666666666667" height="10" fill="#FFF" shape-rendering="crispEdges"/><rect x="333.6666666666667" y="107" width="6.666666666666667" height="10" fill="#FFF" shape-rendering="crispEdges"/><rect x="343.6666666666667" y="107" width="6.666666666666667" height="10" fill="#FFF" shape-rendering="crispEdges"/><rect x="353.6666666666667" y="107" width="6.666666666666667" height="10" fill="#FFF" shape-rendering="crispEdges"/><rect x="13.666666666666666" y="117" width="6.666666666666667" height="10" fill="#FFF" shape-rendering="crispEdges"/><rect x="33.666666666666664" y="117" width="6.666666666666667" height="10" fill="#FFF" shape-rendering="crispEdges"/><rect x="43.666666666666664" y="117" width="6.666666666666667" height="10" fill="#FFF" shape-rendering="crispEdges"/><rect x="148.66666666666666" y="117" width="6.666666666666667" height="10" fill="#FFF" shape-rendering="crispEdges"/><rect x="158.66666666666666" y="117" width="6.666666666666667" height="10" fill="#FFF" shape-rendering="crispEdges"/><rect x="168.66666666666666" y="117" width="6.666666666666667" height="10" fill="#FFF" shape-rendering="crispEdges"/><rect x="178.66666666666666" y="117" width="6.666666666666667" height="10" fill="#FFF" shape-rendering="crispEdges"/><rect x="188.66666666666666" y="117" width="6.666666666666667" height="10" fill="#FFF" shape-rendering="crispEdges"/><rect x="198.66666666666666" y="117" width="6.666666666666667" height="10" fill="#FFF" shape-rendering="crispEdges"/><rect x="228.66666666666666" y="117" width="6.666666666666667" height="10" fill="#FFF" shape-rendering="crispEdges"/><rect x="333.6666666666667" y="117" width="6.666666666666667" height="10" fill="#FFF" shape-rendering="crispEdges"/><rect x="343.6666666666667" y="117" width="6.666666666666667" height="10" fill="#FFF" shape-rendering="crispEdges"/><rect x="363.6666666666667" y="117" width="6.666666666666667" height="10" fill="#FFF" shape-rendering="crispEdges"/><rect x="13.666666666666666" y="127" width="6.666666666666667" height="10" fill="#FFF" shape-rendering="crispEdges"/><rect x="23.666666666666668" y="127" width="6.666666666666667" height="10" fill="#FFF" shape-rendering="crispEdges"/><rect x="53.666666666666664" y="127" width="6.666666666666667" height="10" fill="#FFF" shape-rendering="crispEdges"/><rect x="148.66666666666666" y="127" width="6.666666666666667" height="10" fill="#FFF" shape-rendering="crispEdges"/><rect x="168.66666666666666" y="127" width="6.666666666666667" height="10" fill="#FFF" shape-rendering="crispEdges"/><rect x="188.66666666666666" y="127" width="6.666666666666667" height="10" fill="#FFF" shape-rendering="crispEdges"/><rect x="208.66666666666666" y="127" width="6.666666666666667" height="10" fill="#FFF" shape-rendering="crispEdges"/><rect x="228.66666666666666" y="127" width="6.666666666666667" height="10" fill="#FFF" shape-rendering="crispEdges"/><rect x="323.6666666666667" y="127" width="6.666666666666667" height="10" fill="#FFF" shape-rendering="crispEdges"/><rect x="43.666666666666664" y="137" width="6.666666666666667" height="10" fill="#FFF" shape-rendering="crispEdges"/><rect x="168.66666666666666" y="137" width="6.666666666666667" height="10" fill="#FFF" shape-rendering="crispEdges"/><rect x="188.66666666666666" y="137" width="6.666666666666667" height="10" fill="#FFF" shape-rendering="crispEdges"/><rect x="208.66666666666666" y="137" width="6.666666666666667" height="10" fill="#FFF" shape-rendering="crispEdges"/><rect x="323.6666666666667" y="137" width="6.666666666666667" height="10" fill="#FFF" shape-rendering="crispEdges"/><rect x="343.6666666666667" y="137" width="6.666666666666667" height="10" fill="#FFF" shape-rendering="crispEdges"/><rect x="13.666666666666666" y="147" width="6.666666666666667" height="10" fill="#FFF" shape-rendering="crispEdges"/><rect x="33.666666666666664" y="147" width="6.666666666666667" height="10" fill="#FFF" shape-rendering="crispEdges"/><rect x="43.666666666666664" y="147" width="6.666666666666667" height="10" fill="#FFF" shape-rendering="crispEdges"/><rect x="53.666666666666664" y="147" width="6.666666666666667" height="10" fill="#FFF" shape-rendering="crispEdges"/><rect x="68.66666666666667" y="147" width="6.666666666666667" height="10" fill="#FFF" shape-rendering="crispEdges"/><rect x="88.66666666666667" y="147" width="6.666666666666667" height="10" fill="#FFF" shape-rendering="crispEdges"/><rect x="128.66666666666666" y="147" width="6.666666666666667" height="10" fill="#FFF" shape-rendering="crispEdges"/><rect x="138.66666666666666" y="147" width="6.666666666666667" height="10" fill="#FFF" shape-rendering="crispEdges"/><rect x="158.66666666666666" y="147" width="6.666666666666667" height="10" fill="#FFF" shape-rendering="crispEdges"/><rect x="168.66666666666666" y="147" width="6.666666666666667" height="10" fill="#FFF" shape-rendering="crispEdges"/><rect x="178.66666666666666" y="147" width="6.666666666666667" height="10" fill="#FFF" shape-rendering="crispEdges"/><rect x="188.66666666666666" y="147" width="6.666666666666667" height="10" fill="#FFF" shape-rendering="crispEdges"/><rect x="198.66666666666666" y="147" width="6.666666666666667" height="10" fill="#FFF" shape-rendering="crispEdges"/><rect x="228.66666666666666" y="147" width="6.666666666666667" height="10" fill="#FFF" shape-rendering="crispEdges"/><rect x="258.6666666666667" y="147" width="6.666666666666667" height="10" fill="#FFF" shape-rendering="crispEdges"/><rect x="288.6666666666667" y="147" width="6.666666666666667" height="10" fill="#FFF" shape-rendering="crispEdges"/><rect x="308.6666666666667" y="147" width="6.666666666666667" height="10" fill="#FFF" shape-rendering="crispEdges"/><rect x="333.6666666666667" y="147" width="6.666666666666667" height="10" fill="#FFF" shape-rendering="crispEdges"/><rect x="343.6666666666667" y="147" width="6.666666666666667" height="10" fill="#FFF" shape-rendering="crispEdges"/><rect x="363.6666666666667" y="147" width="6.666666666666667" height="10" fill="#FFF" shape-rendering="crispEdges"/><rect x="3.666666666666667" y="157" width="6.666666666666667" height="10" fill="#FFF" shape-rendering="crispEdges"/><rect x="23.666666666666668" y="157" width="6.666666666666667" height="10" fill="#FFF" shape-rendering="crispEdges"/><rect x="33.666666666666664" y="157" width="6.666666666666667" height="10" fill="#FFF" shape-rendering="crispEdges"/><rect x="53.666666666666664" y="157" width="6.666666666666667" height="10" fill="#FFF" shape-rendering="crispEdges"/><rect x="68.66666666666667" y="157" width="6.666666666666667" height="10" fill="#FFF" shape-rendering="crispEdges"/><rect x="98.66666666666667" y="157" width="6.666666666666667" height="10" fill="#FFF" shape-rendering="crispEdges"/><rect x="148.66666666666666" y="157" width="6.666666666666667" height="10" fill="#FFF" shape-rendering="crispEdges"/><rect x="178.66666666666666" y="157" width="6.666666666666667" height="10" fill="#FFF" shape-rendering="crispEdges"/><rect x="188.66666666666666" y="157" width="6.666666666666667" height="10" fill="#FFF" shape-rendering="crispEdges"/><rect x="218.66666666666666" y="157" width="6.666666666666667" height="10" fill="#FFF" shape-rendering="crispEdges"/><rect x="228.66666666666666" y="157" width="6.666666666666667" height="10" fill="#FFF" shape-rendering="crispEdges"/><rect x="248.66666666666666" y="157" width="6.666666666666667" height="10" fill="#FFF" shape-rendering="crispEdges"/><rect x="258.6666666666667" y="157" width="6.666666666666667" height="10" fill="#FFF" shape-rendering="crispEdges"/><rect x="278.6666666666667" y="157" width="6.666666666666667" height="10" fill="#FFF" shape-rendering="crispEdges"/><rect x="298.6666666666667" y="157" width="6.666666666666667" height="10" fill="#FFF" shape-rendering="crispEdges"/><rect x="308.6666666666667" y="157" width="6.666666666666667" height="10" fill="#FFF" shape-rendering="crispEdges"/><rect x="323.6666666666667" y="157" width="6.666666666666667" height="10" fill="#FFF" shape-rendering="crispEdges"/><rect x="343.6666666666667" y="157" width="6.666666666666667" height="10" fill="#FFF" shape-rendering="crispEdges"/><rect x="373.6666666666667" y="157" width="6.666666666666667" height="10" fill="#FFF" shape-rendering="crispEdges"/><rect x="3.666666666666667" y="167" width="6.666666666666667" height="10" fill="#FFF" shape-rendering="crispEdges"/><rect x="23.666666666666668" y="167" width="6.666666666666667" height="10" fill="#FFF" shape-rendering="crispEdges"/><rect x="33.666666666666664" y="167" width="6.666666666666667" height="10" fill="#FFF" shape-rendering="crispEdges"/><rect x="53.666666666666664" y="167" width="6.666666666666667" height="10" fill="#FFF" shape-rendering="crispEdges"/><rect x="68.66666666666667" y="167" width="6.666666666666667" height="10" fill="#FFF" shape-rendering="crispEdges"/><rect x="78.66666666666667" y="167" width="6.666666666666667" height="10" fill="#FFF" shape-rendering="crispEdges"/><rect x="88.66666666666667" y="167" width="6.666666666666667" height="10" fill="#FFF" shape-rendering="crispEdges"/><rect x="98.66666666666667" y="167" width="6.666666666666667" height="10" fill="#FFF" shape-rendering="crispEdges"/><rect x="128.66666666666666" y="167" width="6.666666666666667" height="10" fill="#FFF" shape-rendering="crispEdges"/><rect x="138.66666666666666" y="167" width="6.666666666666667" height="10" fill="#FFF" shape-rendering="crispEdges"/><rect x="148.66666666666666" y="167" width="6.666666666666667" height="10" fill="#FFF" shape-rendering="crispEdges"/><rect x="168.66666666666666" y="167" width="6.666666666666667" height="10" fill="#FFF" shape-rendering="crispEdges"/><rect x="178.66666666666666" y="167" width="6.666666666666667" height="10" fill="#FFF" shape-rendering="crispEdges"/><rect x="188.66666666666666" y="167" width="6.666666666666667" height="10" fill="#FFF" shape-rendering="crispEdges"/><rect x="218.66666666666666" y="167" width="6.666666666666667" height="10" fill="#FFF" shape-rendering="crispEdges"/><rect x="228.66666666666666" y="167" width="6.666666666666667" height="10" fill="#FFF" shape-rendering="crispEdges"/><rect x="258.6666666666667" y="167" width="6.666666666666667" height="10" fill="#FFF" shape-rendering="crispEdges"/><rect x="278.6666666666667" y="167" width="6.666666666666667" height="10" fill="#FFF" shape-rendering="crispEdges"/><rect x="288.6666666666667" y="167" width="6.666666666666667" height="10" fill="#FFF" shape-rendering="crispEdges"/><rect x="308.6666666666667" y="167" width="6.666666666666667" height="10" fill="#FFF" shape-rendering="crispEdges"/><rect x="323.6666666666667" y="167" width="6.666666666666667" height="10" fill="#FFF" shape-rendering="crispEdges"/><rect x="333.6666666666667" y="167" width="6.666666666666667" height="10" fill="#FFF" shape-rendering="crispEdges"/><rect x="353.6666666666667" y="167" width="6.666666666666667" height="10" fill="#FFF" shape-rendering="crispEdges"/><rect x="373.6666666666667" y="167" width="6.666666666666667" height="10" fill="#FFF" shape-rendering="crispEdges"/><rect x="3.666666666666667" y="177" width="6.666666666666667" height="10" fill="#FFF" shape-rendering="crispEdges"/><rect x="13.666666666666666" y="177" width="6.666666666666667" height="10" fill="#FFF" shape-rendering="crispEdges"/><rect x="33.666666666666664" y="177" width="6.666666666666667" height="10" fill="#FFF" shape-rendering="crispEdges"/><rect x="43.666666666666664" y="177" width="6.666666666666667" height="10" fill="#FFF" shape-rendering="crispEdges"/><rect x="78.66666666666667" y="177" width="6.666666666666667" height="10" fill="#FFF" shape-rendering="crispEdges"/><rect x="98.66666666666667" y="177" width="6.666666666666667" height="10" fill="#FFF" shape-rendering="crispEdges"/><rect x="118.66666666666667" y="177" width="6.666666666666667" height="10" fill="#FFF" shape-rendering="crispEdges"/><rect x="158.66666666666666" y="177" width="6.666666666666667" height="10" fill="#FFF" shape-rendering="crispEdges"/><rect x="188.66666666666666" y="177" width="6.666666666666667" height="10" fill="#FFF" shape-rendering="crispEdges"/><rect x="218.66666666666666" y="177" width="6.666666666666667" height="10" fill="#FFF" shape-rendering="crispEdges"/><rect x="228.66666666666666" y="177" width="6.666666666666667" height="10" fill="#FFF" shape-rendering="crispEdges"/><rect x="258.6666666666667" y="177" width="6.666666666666667" height="10" fill="#FFF" shape-rendering="crispEdges"/><rect x="278.6666666666667" y="177" width="6.666666666666667" height="10" fill="#FFF" shape-rendering="crispEdges"/><rect x="343.6666666666667" y="177" width="6.666666666666667" height="10" fill="#FFF" shape-rendering="crispEdges"/><rect x="353.6666666666667" y="177" width="6.666666666666667" height="10" fill="#FFF" shape-rendering="crispEdges"/><rect x="363.6666666666667" y="177" width="6.666666666666667" height="10" fill="#FFF" shape-rendering="crispEdges"/><rect x="3.666666666666667" y="187" width="6.666666666666667" height="10" fill="#FFF" shape-rendering="crispEdges"/><rect x="33.666666666666664" y="187" width="6.666666666666667" height="10" fill="#FFF" shape-rendering="crispEdges"/><rect x="68.66666666666667" y="187" width="6.666666666666667" height="10" fill="#FFF" shape-rendering="crispEdges"/><rect x="78.66666666666667" y="187" width="6.666666666666667" height="10" fill="#FFF" shape-rendering="crispEdges"/><rect x="88.66666666666667" y="187" width="6.666666666666667" height="10" fill="#FFF" shape-rendering="crispEdges"/><rect x="98.66666666666667" y="187" width="6.666666666666667" height="10" fill="#FFF" shape-rendering="crispEdges"/><rect x="108.66666666666667" y="187" width="6.666666666666667" height="10" fill="#FFF" shape-rendering="crispEdges"/><rect x="118.66666666666667" y="187" width="6.666666666666667" height="10" fill="#FFF" shape-rendering="crispEdges"/><rect x="128.66666666666666" y="187" width="6.666666666666667" height="10" fill="#FFF" shape-rendering="crispEdges"/><rect x="158.66666666666666" y="187" width="6.666666666666667" height="10" fill="#FFF" shape-rendering="crispEdges"/><rect x="168.66666666666666" y="187" width="6.666666666666667" height="10" fill="#FFF" shape-rendering="crispEdges"/><rect x="178.66666666666666" y="187" width="6.666666666666667" height="10" fill="#FFF" shape-rendering="crispEdges"/><rect x="188.66666666666666" y="187" width="6.666666666666667" height="10" fill="#FFF" shape-rendering="crispEdges"/><rect x="228.66666666666666" y="187" width="6.666666666666667" height="10" fill="#FFF" shape-rendering="crispEdges"/><rect x="248.66666666666666" y="187" width="6.666666666666667" height="10" fill="#FFF" shape-rendering="crispEdges"/><rect x="258.6666666666667" y="187" width="6.666666666666667" height="10" fill="#FFF" shape-rendering="crispEdges"/><rect x="308.6666666666667" y="187" width="6.666666666666667" height="10" fill="#FFF" shape-rendering="crispEdges"/><rect x="323.6666666666667" y="187" width="6.666666666666667" height="10" fill="#FFF" shape-rendering="crispEdges"/><rect x="333.6666666666667" y="187" width="6.666666666666667" height="10" fill="#FFF" shape-rendering="crispEdges"/><rect x="353.6666666666667" y="187" width="6.666666666666667" height="10" fill="#FFF" shape-rendering="crispEdges"/><rect x="3.666666666666667" y="197" width="6.666666666666667" height="10" fill="#FFF" shape-rendering="crispEdges"/><rect x="13.666666666666666" y="197" width="6.666666666666667" height="10" fill="#FFF" shape-rendering="crispEdges"/><rect x="43.666666666666664" y="197" width="6.666666666666667" height="10" fill="#FFF" shape-rendering="crispEdges"/><rect x="78.66666666666667" y="197" width="6.666666666666667" height="10" fill="#FFF" shape-rendering="crispEdges"/><rect x="98.66666666666667" y="197" width="6.666666666666667" height="10" fill="#FFF" shape-rendering="crispEdges"/><rect x="138.66666666666666" y="197" width="6.666666666666667" height="10" fill="#FFF" shape-rendering="crispEdges"/><rect x="218.66666666666666" y="197" width="6.666666666666667" height="10" fill="#FFF" shape-rendering="crispEdges"/><rect x="248.66666666666666" y="197" width="6.666666666666667" height="10" fill="#FFF" shape-rendering="crispEdges"/><rect x="258.6666666666667" y="197" width="6.666666666666667" height="10" fill="#FFF" shape-rendering="crispEdges"/><rect x="298.6666666666667" y="197" width="6.666666666666667" height="10" fill="#FFF" shape-rendering="crispEdges"/><rect x="308.6666666666667" y="197" width="6.666666666666667" height="10" fill="#FFF" shape-rendering="crispEdges"/><rect x="323.6666666666667" y="197" width="6.666666666666667" height="10" fill="#FFF" shape-rendering="crispEdges"/><rect x="363.6666666666667" y="197" width="6.666666666666667" height="10" fill="#FFF" shape-rendering="crispEdges"/><rect x="373.6666666666667" y="197" width="6.666666666666667" height="10" fill="#FFF" shape-rendering="crispEdges"/><rect x="3.666666666666667" y="207" width="6.666666666666667" height="10" fill="#FFF" shape-rendering="crispEdges"/><rect x="13.666666666666666" y="207" width="6.666666666666667" height="10" fill="#FFF" shape-rendering="crispEdges"/><rect x="43.666666666666664" y="207" width="6.666666666666667" height="10" fill="#FFF" shape-rendering="crispEdges"/><rect x="68.66666666666667" y="207" width="6.666666666666667" height="10" fill="#FFF" shape-rendering="crispEdges"/><rect x="78.66666666666667" y="207" width="6.666666666666667" height="10" fill="#FFF" shape-rendering="crispEdges"/><rect x="88.66666666666667" y="207" width="6.666666666666667" height="10" fill="#FFF" shape-rendering="crispEdges"/><rect x="128.66666666666666" y="207" width="6.666666666666667" height="10" fill="#FFF" shape-rendering="crispEdges"/><rect x="138.66666666666666" y="207" width="6.666666666666667" height="10" fill="#FFF" shape-rendering="crispEdges"/><rect x="158.66666666666666" y="207" width="6.666666666666667" height="10" fill="#FFF" shape-rendering="crispEdges"/><rect x="178.66666666666666" y="207" width="6.666666666666667" height="10" fill="#FFF" shape-rendering="crispEdges"/><rect x="198.66666666666666" y="207" width="6.666666666666667" height="10" fill="#FFF" shape-rendering="crispEdges"/><rect x="218.66666666666666" y="207" width="6.666666666666667" height="10" fill="#FFF" shape-rendering="crispEdges"/><rect x="278.6666666666667" y="207" width="6.666666666666667" height="10" fill="#FFF" shape-rendering="crispEdges"/><rect x="288.6666666666667" y="207" width="6.666666666666667" height="10" fill="#FFF" shape-rendering="crispEdges"/><rect x="308.6666666666667" y="207" width="6.666666666666667" height="10" fill="#FFF" shape-rendering="crispEdges"/><rect x="333.6666666666667" y="207" width="6.666666666666667" height="10" fill="#FFF" shape-rendering="crispEdges"/><rect x="343.6666666666667" y="207" width="6.666666666666667" height="10" fill="#FFF" shape-rendering="crispEdges"/><rect x="363.6666666666667" y="207" width="6.666666666666667" height="10" fill="#FFF" shape-rendering="crispEdges"/><rect x="373.6666666666667" y="207" width="6.666666666666667" height="10" fill="#FFF" shape-rendering="crispEdges"/><rect x="3.666666666666667" y="217" width="6.666666666666667" height="10" fill="#FFF" shape-rendering="crispEdges"/><rect x="13.666666666666666" y="217" width="6.666666666666667" height="10" fill="#FFF" shape-rendering="crispEdges"/><rect x="23.666666666666668" y="217" width="6.666666666666667" height="10" fill="#FFF" shape-rendering="crispEdges"/><rect x="43.666666666666664" y="217" width="6.666666666666667" height="10" fill="#FFF" shape-rendering="crispEdges"/><rect x="53.666666666666664" y="217" width="6.666666666666667" height="10" fill="#FFF" shape-rendering="crispEdges"/><rect x="88.66666666666667" y="217" width="6.666666666666667" height="10" fill="#FFF" shape-rendering="crispEdges"/><rect x="98.66666666666667" y="217" width="6.666666666666667" height="10" fill="#FFF" shape-rendering="crispEdges"/><rect x="158.66666666666666" y="217" width="6.666666666666667" height="10" fill="#FFF" shape-rendering="crispEdges"/><rect x="178.66666666666666" y="217" width="6.666666666666667" height="10" fill="#FFF" shape-rendering="crispEdges"/><rect x="218.66666666666666" y="217" width="6.666666666666667" height="10" fill="#FFF" shape-rendering="crispEdges"/><rect x="228.66666666666666" y="217" width="6.666666666666667" height="10" fill="#FFF" shape-rendering="crispEdges"/><rect x="238.66666666666666" y="217" width="6.666666666666667" height="10" fill="#FFF" shape-rendering="crispEdges"/><rect x="248.66666666666666" y="217" width="6.666666666666667" height="10" fill="#FFF" shape-rendering="crispEdges"/><rect x="258.6666666666667" y="217" width="6.666666666666667" height="10" fill="#FFF" shape-rendering="crispEdges"/><rect x="268.6666666666667" y="217" width="6.666666666666667" height="10" fill="#FFF" shape-rendering="crispEdges"/><rect x="278.6666666666667" y="217" width="6.666666666666667" height="10" fill="#FFF" shape-rendering="crispEdges"/><rect x="343.6666666666667" y="217" width="6.666666666666667" height="10" fill="#FFF" shape-rendering="crispEdges"/><rect x="353.6666666666667" y="217" width="6.666666666666667" height="10" fill="#FFF" shape-rendering="crispEdges"/><rect x="373.6666666666667" y="217" width="6.666666666666667" height="10" fill="#FFF" shape-rendering="crispEdges"/><rect x="13.666666666666666" y="227" width="6.666666666666667" height="10" fill="#FFF" shape-rendering="crispEdges"/><rect x="23.666666666666668" y="227" width="6.666666666666667" height="10" fill="#FFF" shape-rendering="crispEdges"/><rect x="43.666666666666664" y="227" width="6.666666666666667" height="10" fill="#FFF" shape-rendering="crispEdges"/><rect x="53.666666666666664" y="227" width="6.666666666666667" height="10" fill="#FFF" shape-rendering="crispEdges"/><rect x="68.66666666666667" y="227" width="6.666666666666667" height="10" fill="#FFF" shape-rendering="crispEdges"/><rect x="78.66666666666667" y="227" width="6.666666666666667" height="10" fill="#FFF" shape-rendering="crispEdges"/><rect x="108.66666666666667" y="227" width="6.666666666666667" height="10" fill="#FFF" shape-rendering="crispEdges"/><rect x="128.66666666666666" y="227" width="6.666666666666667" height="10" fill="#FFF" shape-rendering="crispEdges"/><rect x="148.66666666666666" y="227" width="6.666666666666667" height="10" fill="#FFF" shape-rendering="crispEdges"/><rect x="158.66666666666666" y="227" width="6.666666666666667" height="10" fill="#FFF" shape-rendering="crispEdges"/><rect x="168.66666666666666" y="227" width="6.666666666666667" height="10" fill="#FFF" shape-rendering="crispEdges"/><rect x="178.66666666666666" y="227" width="6.666666666666667" height="10" fill="#FFF" shape-rendering="crispEdges"/><rect x="228.66666666666666" y="227" width="6.666666666666667" height="10" fill="#FFF" shape-rendering="crispEdges"/><rect x="238.66666666666666" y="227" width="6.666666666666667" height="10" fill="#FFF" shape-rendering="crispEdges"/><rect x="248.66666666666666" y="227" width="6.666666666666667" height="10" fill="#FFF" shape-rendering="crispEdges"/><rect x="258.6666666666667" y="227" width="6.666666666666667" height="10" fill="#FFF" shape-rendering="crispEdges"/><rect x="268.6666666666667" y="227" width="6.666666666666667" height="10" fill="#FFF" shape-rendering="crispEdges"/><rect x="298.6666666666667" y="227" width="6.666666666666667" height="10" fill="#FFF" shape-rendering="crispEdges"/><rect x="353.6666666666667" y="227" width="6.666666666666667" height="10" fill="#FFF" shape-rendering="crispEdges"/><rect x="363.6666666666667" y="227" width="6.666666666666667" height="10" fill="#FFF" shape-rendering="crispEdges"/><rect x="13.666666666666666" y="237" width="6.666666666666667" height="10" fill="#FFF" shape-rendering="crispEdges"/><rect x="23.666666666666668" y="237" width="6.666666666666667" height="10" fill="#FFF" shape-rendering="crispEdges"/><rect x="43.666666666666664" y="237" width="6.666666666666667" height="10" fill="#FFF" shape-rendering="crispEdges"/><rect x="148.66666666666666" y="237" width="6.666666666666667" height="10" fill="#FFF" shape-rendering="crispEdges"/><rect x="158.66666666666666" y="237" width="6.666666666666667" height="10" fill="#FFF" shape-rendering="crispEdges"/><rect x="178.66666666666666" y="237" width="6.666666666666667" height="10" fill="#FFF" shape-rendering="crispEdges"/><rect x="188.66666666666666" y="237" width="6.666666666666667" height="10" fill="#FFF" shape-rendering="crispEdges"/><rect x="208.66666666666666" y="237" width="6.666666666666667" height="10" fill="#FFF" shape-rendering="crispEdges"/><rect x="228.66666666666666" y="237" width="6.666666666666667" height="10" fill="#FFF" shape-rendering="crispEdges"/><rect x="268.6666666666667" y="237" width="6.666666666666667" height="10" fill="#FFF" shape-rendering="crispEdges"/><rect x="308.6666666666667" y="237" width="6.666666666666667" height="10" fill="#FFF" shape-rendering="crispEdges"/><rect x="353.6666666666667" y="237" width="6.666666666666667" height="10" fill="#FFF" shape-rendering="crispEdges"/><rect x="13.666666666666666" y="247" width="6.666666666666667" height="10" fill="#FFF" shape-rendering="crispEdges"/><rect x="43.666666666666664" y="247" width="6.666666666666667" height="10" fill="#FFF" shape-rendering="crispEdges"/><rect x="148.66666666666666" y="247" width="6.666666666666667" height="10" fill="#FFF" shape-rendering="crispEdges"/><rect x="158.66666666666666" y="247" width="6.666666666666667" height="10" fill="#FFF" shape-rendering="crispEdges"/><rect x="178.66666666666666" y="247" width="6.666666666666667" height="10" fill="#FFF" shape-rendering="crispEdges"/><rect x="198.66666666666666" y="247" width="6.666666666666667" height="10" fill="#FFF" shape-rendering="crispEdges"/><rect x="208.66666666666666" y="247" width="6.666666666666667" height="10" fill="#FFF" shape-rendering="crispEdges"/><rect x="228.66666666666666" y="247" width="6.666666666666667" height="10" fill="#FFF" shape-rendering="crispEdges"/><rect x="248.66666666666666" y="247" width="6.666666666666667" height="10" fill="#FFF" shape-rendering="crispEdges"/><rect x="268.6666666666667" y="247" width="6.666666666666667" height="10" fill="#FFF" shape-rendering="crispEdges"/><rect x="308.6666666666667" y="247" width="6.666666666666667" height="10" fill="#FFF" shape-rendering="crispEdges"/><rect x="13.666666666666666" y="257" width="6.666666666666667" height="10" fill="#FFF" shape-rendering="crispEdges"/><rect x="43.666666666666664" y="257" width="6.666666666666667" height="10" fill="#FFF" shape-rendering="crispEdges"/><rect x="53.666666666666664" y="257" width="6.666666666666667" height="10" fill="#FFF" shape-rendering="crispEdges"/><rect x="158.66666666666666" y="257" width="6.666666666666667" height="10" fill="#FFF" shape-rendering="crispEdges"/><rect x="188.66666666666666" y="257" width="6.666666666666667" height="10" fill="#FFF" shape-rendering="crispEdges"/><rect x="218.66666666666666" y="257" width="6.666666666666667" height="10" fill="#FFF" shape-rendering="crispEdges"/><rect x="228.66666666666666" y="257" width="6.666666666666667" height="10" fill="#FFF" shape-rendering="crispEdges"/><rect x="268.6666666666667" y="257" width="6.666666666666667" height="10" fill="#FFF" shape-rendering="crispEdges"/><rect x="308.6666666666667" y="257" width="6.666666666666667" height="10" fill="#FFF" shape-rendering="crispEdges"/><rect x="323.6666666666667" y="257" width="6.666666666666667" height="10" fill="#FFF" shape-rendering="crispEdges"/><rect x="353.6666666666667" y="257" width="6.666666666666667" height="10" fill="#FFF" shape-rendering="crispEdges"/><rect x="43.666666666666664" y="267" width="6.666666666666667" height="10" fill="#FFF" shape-rendering="crispEdges"/><rect x="53.666666666666664" y="267" width="6.666666666666667" height="10" fill="#FFF" shape-rendering="crispEdges"/><rect x="168.66666666666666" y="267" width="6.666666666666667" height="10" fill="#FFF" shape-rendering="crispEdges"/><rect x="188.66666666666666" y="267" width="6.666666666666667" height="10" fill="#FFF" shape-rendering="crispEdges"/><rect x="208.66666666666666" y="267" width="6.666666666666667" height="10" fill="#FFF" shape-rendering="crispEdges"/><rect x="218.66666666666666" y="267" width="6.666666666666667" height="10" fill="#FFF" shape-rendering="crispEdges"/><rect x="228.66666666666666" y="267" width="6.666666666666667" height="10" fill="#FFF" shape-rendering="crispEdges"/><rect x="238.66666666666666" y="267" width="6.666666666666667" height="10" fill="#FFF" shape-rendering="crispEdges"/><rect x="248.66666666666666" y="267" width="6.666666666666667" height="10" fill="#FFF" shape-rendering="crispEdges"/><rect x="258.6666666666667" y="267" width="6.666666666666667" height="10" fill="#FFF" shape-rendering="crispEdges"/><rect x="268.6666666666667" y="267" width="6.666666666666667" height="10" fill="#FFF" shape-rendering="crispEdges"/><rect x="298.6666666666667" y="267" width="6.666666666666667" height="10" fill="#FFF" shape-rendering="crispEdges"/><rect x="323.6666666666667" y="267" width="6.666666666666667" height="10" fill="#FFF" shape-rendering="crispEdges"/><rect x="333.6666666666667" y="267" width="6.666666666666667" height="10" fill="#FFF" shape-rendering="crispEdges"/><rect x="343.6666666666667" y="267" width="6.666666666666667" height="10" fill="#FFF" shape-rendering="crispEdges"/><rect x="353.6666666666667" y="267" width="6.666666666666667" height="10" fill="#FFF" shape-rendering="crispEdges"/><rect x="53.666666666666664" y="277" width="6.666666666666667" height="10" fill="#FFF" shape-rendering="crispEdges"/><rect x="158.66666666666666" y="277" width="6.666666666666667" height="10" fill="#FFF" shape-rendering="crispEdges"/><rect x="168.66666666666666" y="277" width="6.666666666666667" height="10" fill="#FFF" shape-rendering="crispEdges"/><rect x="178.66666666666666" y="277" width="6.666666666666667" height="10" fill="#FFF" shape-rendering="crispEdges"/><rect x="188.66666666666666" y="277" width="6.666666666666667" height="10" fill="#FFF" shape-rendering="crispEdges"/><rect x="208.66666666666666" y="277" width="6.666666666666667" height="10" fill="#FFF" shape-rendering="crispEdges"/><rect x="238.66666666666666" y="277" width="6.666666666666667" height="10" fill="#FFF" shape-rendering="crispEdges"/><rect x="268.6666666666667" y="277" width="6.666666666666667" height="10" fill="#FFF" shape-rendering="crispEdges"/><rect x="288.6666666666667" y="277" width="6.666666666666667" height="10" fill="#FFF" shape-rendering="crispEdges"/><rect x="298.6666666666667" y="277" width="6.666666666666667" height="10" fill="#FFF" shape-rendering="crispEdges"/><rect x="333.6666666666667" y="277" width="6.666666666666667" height="10" fill="#FFF" shape-rendering="crispEdges"/><rect x="343.6666666666667" y="277" width="6.666666666666667" height="10" fill="#FFF" shape-rendering="crispEdges"/><rect x="353.6666666666667" y="277" width="6.666666666666667" height="10" fill="#FFF" shape-rendering="crispEdges"/><rect x="33.666666666666664" y="287" width="6.666666666666667" height="10" fill="#FFF" shape-rendering="crispEdges"/><rect x="53.666666666666664" y="287" width="6.666666666666667" height="10" fill="#FFF" shape-rendering="crispEdges"/><rect x="148.66666666666666" y="287" width="6.666666666666667" height="10" fill="#FFF" shape-rendering="crispEdges"/><rect x="168.66666666666666" y="287" width="6.666666666666667" height="10" fill="#FFF" shape-rendering="crispEdges"/><rect x="178.66666666666666" y="287" width="6.666666666666667" height="10" fill="#FFF" shape-rendering="crispEdges"/><rect x="188.66666666666666" y="287" width="6.666666666666667" height="10" fill="#FFF" shape-rendering="crispEdges"/><rect x="228.66666666666666" y="287" width="6.666666666666667" height="10" fill="#FFF" shape-rendering="crispEdges"/><rect x="258.6666666666667" y="287" width="6.666666666666667" height="10" fill="#FFF" shape-rendering="crispEdges"/><rect x="268.6666666666667" y="287" width="6.666666666666667" height="10" fill="#FFF" shape-rendering="crispEdges"/><rect x="278.6666666666667" y="287" width="6.666666666666667" height="10" fill="#FFF" shape-rendering="crispEdges"/><rect x="298.6666666666667" y="287" width="6.666666666666667" height="10" fill="#FFF" shape-rendering="crispEdges"/><rect x="308.6666666666667" y="287" width="6.666666666666667" height="10" fill="#FFF" shape-rendering="crispEdges"/><rect x="333.6666666666667" y="287" width="6.666666666666667" height="10" fill="#FFF" shape-rendering="crispEdges"/><rect x="343.6666666666667" y="287" width="6.666666666666667" height="10" fill="#FFF" shape-rendering="crispEdges"/><rect x="53.666666666666664" y="297" width="6.666666666666667" height="10" fill="#FFF" shape-rendering="crispEdges"/><rect x="168.66666666666666" y="297" width="6.666666666666667" height="10" fill="#FFF" shape-rendering="crispEdges"/><rect x="178.66666666666666" y="297" width="6.666666666666667" height="10" fill="#FFF" shape-rendering="crispEdges"/><rect x="218.66666666666666" y="297" width="6.666666666666667" height="10" fill="#FFF" shape-rendering="crispEdges"/><rect x="228.66666666666666" y="297" width="6.666666666666667" height="10" fill="#FFF" shape-rendering="crispEdges"/><rect x="238.66666666666666" y="297" width="6.666666666666667" height="10" fill="#FFF" shape-rendering="crispEdges"/><rect x="258.6666666666667" y="297" width="6.666666666666667" height="10" fill="#FFF" shape-rendering="crispEdges"/><rect x="268.6666666666667" y="297" width="6.666666666666667" height="10" fill="#FFF" shape-rendering="crispEdges"/><rect x="43.666666666666664" y="307" width="6.666666666666667" height="15" fill="#FFF" shape-rendering="crispEdges"/><rect x="148.66666666666666" y="307" width="6.666666666666667" height="10" fill="#FFF" shape-rendering="crispEdges"/><rect x="168.66666666666666" y="307" width="6.666666666666667" height="10" fill="#FFF" shape-rendering="crispEdges"/><rect x="198.66666666666666" y="307" width="6.666666666666667" height="10" fill="#FFF" shape-rendering="crispEdges"/><rect x="228.66666666666666" y="307" width="6.666666666666667" height="10" fill="#FFF" shape-rendering="crispEdges"/><rect x="278.6666666666667" y="307" width="6.666666666666667" height="10" fill="#FFF" shape-rendering="crispEdges"/><rect x="308.6666666666667" y="307" width="6.666666666666667" height="10" fill="#FFF" shape-rendering="crispEdges"/><rect x="333.6666666666667" y="307" width="6.666666666666667" height="15" fill="#FFF" shape-rendering="crispEdges"/><rect x="78.66666666666667" y="322" width="6.666666666666667" height="10" fill="#FFF" shape-rendering="crispEdges"/><rect x="88.66666666666667" y="322" width="6.666666666666667" height="10" fill="#FFF" shape-rendering="crispEdges"/><rect x="98.66666666666667" y="322" width="6.666666666666667" height="10" fill="#FFF" shape-rendering="crispEdges"/><rect x="138.66666666666666" y="322" width="6.666666666666667" height="10" fill="#FFF" shape-rendering="crispEdges"/><rect x="168.66666666666666" y="322" width="6.666666666666667" height="10" fill="#FFF" shape-rendering="crispEdges"/><rect x="178.66666666666666" y="322" width="6.666666666666667" height="10" fill="#FFF" shape-rendering="crispEdges"/><rect x="198.66666666666666" y="322" width="6.666666666666667" height="10" fill="#FFF" shape-rendering="crispEdges"/><rect x="228.66666666666666" y="322" width="6.666666666666667" height="10" fill="#FFF" shape-rendering="crispEdges"/><rect x="268.6666666666667" y="322" width="6.666666666666667" height="10" fill="#FFF" shape-rendering="crispEdges"/><rect x="288.6666666666667" y="322" width="6.666666666666667" height="10" fill="#FFF" shape-rendering="crispEdges"/><rect x="298.6666666666667" y="322" width="6.666666666666667" height="10" fill="#FFF" shape-rendering="crispEdges"/><rect x="68.66666666666667" y="332" width="6.666666666666667" height="10" fill="#FFF" shape-rendering="crispEdges"/><rect x="118.66666666666667" y="332" width="6.666666666666667" height="10" fill="#FFF" shape-rendering="crispEdges"/><rect x="138.66666666666666" y="332" width="6.666666666666667" height="10" fill="#FFF" shape-rendering="crispEdges"/><rect x="168.66666666666666" y="332" width="6.666666666666667" height="10" fill="#FFF" shape-rendering="crispEdges"/><rect x="188.66666666666666" y="332" width="6.666666666666667" height="10" fill="#FFF" shape-rendering="crispEdges"/><rect x="198.66666666666666" y="332" width="6.666666666666667" height="10" fill="#FFF" shape-rendering="crispEdges"/><rect x="248.66666666666666" y="332" width="6.666666666666667" height="10" fill="#FFF" shape-rendering="crispEdges"/><rect x="258.6666666666667" y="332" width="6.666666666666667" height="10" fill="#FFF" shape-rendering="crispEdges"/><rect x="288.6666666666667" y="332" width="6.666666666666667" height="10" fill="#FFF" shape-rendering="crispEdges"/><rect x="88.66666666666667" y="342" width="6.666666666666667" height="10" fill="#FFF" shape-rendering="crispEdges"/><rect x="168.66666666666666" y="342" width="6.666666666666667" height="10" fill="#FFF" shape-rendering="crispEdges"/><rect x="178.66666666666666" y="342" width="6.666666666666667" height="10" fill="#FFF" shape-rendering="crispEdges"/><rect x="208.66666666666666" y="342" width="6.666666666666667" height="10" fill="#FFF" shape-rendering="crispEdges"/><rect x="218.66666666666666" y="342" width="6.666666666666667" height="10" fill="#FFF" shape-rendering="crispEdges"/><rect x="268.6666666666667" y="342" width="6.666666666666667" height="10" fill="#FFF" shape-rendering="crispEdges"/><rect x="108.66666666666667" y="352" width="6.666666666666667" height="10" fill="#FFF" shape-rendering="crispEdges"/><rect x="268.6666666666667" y="352" width="6.666666666666667" height="10" fill="#FFF" shape-rendering="crispEdges"/><svg xmlns="http://www.w3.org/2000/svg" xmlns:xlink="http://www.w3.org/1999/xlink" version="1.1" x="67" y="247" width="70" height="70"><rect width="100%" height="100%" fill="#1A2A55" shape-rendering="crispEdges"/><defs><clipPath id="eyeClipf95"><rect x="0" y="0" width='70' height='56.5'/></clipPath></defs><rect clip-path="url(#eyeClipf95)" x="5.25" y="5.25" width='59.5' height='59.5' shape-rendering='crispEdges' fill="#1A2A55" stroke="#FFF" stroke-width='10.5'/><svg x="0" y="58.473527218493665" width="70" height="11.526472781506337" viewBox="1.6320000000000001 19.379999999999995 364.752 49.64"><path  fill="#FFF" stroke="#FFF" d="M16.46 51.41L16.46 68L1.63 68L1.63 20.40L30.46 20.40L30.46 33.73L16.46 33.73L16.46 38.08L30.46 38.08L30.46 51.41L16.46 51.41ZM36.45 20.40L51.34 20.40L51.34 54.06L67.39 54.06L67.39 68L36.45 68L36.45 20.40ZM120.84 44.20L120.84 44.20Q120.84 49.30 118.83 53.82Q116.82 58.34 113.36 61.71Q109.89 65.08 105.26 67.05Q100.64 69.02 95.40 69.02L95.40 69.02Q90.17 69.02 85.54 67.05Q80.92 65.08 77.45 61.71Q73.98 58.34 71.98 53.82Q69.97 49.30 69.97 44.20L69.97 44.20Q69.97 39.10 71.98 34.58Q73.98 30.06 77.45 26.69Q80.92 23.32 85.54 21.35Q90.17 19.38 95.40 19.38L95.40 19.38Q100.64 19.38 105.26 21.35Q109.89 23.32 113.36 26.69Q116.82 30.06 118.83 34.58Q120.84 39.10 120.84 44.20ZM105.60 44.20L105.60 44.20Q105.60 42.02 104.82 40.12Q104.04 38.22 102.65 36.82Q101.25 35.43 99.38 34.61Q97.51 33.80 95.40 33.80L95.40 33.80Q93.23 33.80 91.39 34.61Q89.56 35.43 88.16 36.82Q86.77 38.22 85.99 40.12Q85.20 42.02 85.20 44.20L85.20 44.20Q85.20 46.38 85.99 48.28Q86.77 50.18 88.16 51.58Q89.56 52.97 91.39 53.79Q93.23 54.60 95.40 54.60L95.40 54.60Q97.51 54.60 99.38 53.79Q101.25 52.97 102.65 51.58Q104.04 50.18 104.82 48.28Q105.60 46.38 105.60 44.20ZM149.33 68L136.14 68L119.68 20.40L135.12 20.40L142.94 46.65L150.42 20.40L163.54 20.40L170.95 46.65L178.84 20.40L194.00 20.40L177.55 68L164.29 68L156.81 41.21L149.33 68ZM227.73 21.90L227.73 37.06Q225.76 35.63 223.58 34.82Q221.41 34 218.69 34L218.69 34Q216.31 34 214.37 34.78Q212.43 35.56 211.04 36.96Q209.64 38.35 208.86 40.22Q208.08 42.09 208.08 44.20L208.08 44.20Q208.08 46.31 208.86 48.18Q209.64 50.05 211.04 51.41Q212.43 52.77 214.37 53.58Q216.31 54.40 218.69 54.40L218.69 54.40Q221.34 54.40 223.45 53.62Q225.56 52.84 227.73 51.41L227.73 51.41L227.73 66.57Q224.67 68.07 221.88 68.54Q219.10 69.02 217.12 69.02L217.12 69.02Q212.09 69.02 207.71 67.18Q203.32 65.35 199.99 62.05Q196.66 58.75 194.75 54.20Q192.85 49.64 192.85 44.20L192.85 44.20Q192.85 38.90 194.75 34.37Q196.66 29.85 199.99 26.52Q203.32 23.19 207.71 21.28Q212.09 19.38 217.12 19.38L217.12 19.38Q219.64 19.38 222.39 19.99Q225.15 20.60 227.73 21.90L227.73 21.90ZM283.22 44.20L283.22 44.20Q283.22 49.30 281.21 53.82Q279.21 58.34 275.74 61.71Q272.27 65.08 267.65 67.05Q263.02 69.02 257.79 69.02L257.79 69.02Q252.55 69.02 247.93 67.05Q243.30 65.08 239.84 61.71Q236.37 58.34 234.36 53.82Q232.36 49.30 232.36 44.20L232.36 44.20Q232.36 39.10 234.36 34.58Q236.37 30.06 239.84 26.69Q243.30 23.32 247.93 21.35Q252.55 19.38 257.79 19.38L257.79 19.38Q263.02 19.38 267.65 21.35Q272.27 23.32 275.74 26.69Q279.21 30.06 281.21 34.58Q283.22 39.10 283.22 44.20ZM267.99 44.20L267.99 44.20Q267.99 42.02 267.21 40.12Q266.42 38.22 265.03 36.82Q263.64 35.43 261.77 34.61Q259.90 33.80 257.79 33.80L257.79 33.80Q255.61 33.80 253.78 34.61Q251.94 35.43 250.55 36.82Q249.15 38.22 248.37 40.12Q247.59 42.02 247.59 44.20L247.59 44.20Q247.59 46.38 248.37 48.28Q249.15 50.18 250.55 51.58Q251.94 52.97 253.78 53.79Q255.61 54.60 257.79 54.60L257.79 54.60Q259.90 54.60 261.77 53.79Q263.64 52.97 265.03 51.58Q266.42 50.18 267.21 48.28Q267.99 46.38 267.99 44.20ZM306.20 68L288.80 68L288.80 20.40L306.20 20.40Q311.30 20.40 315.83 22.27Q320.35 24.14 323.71 27.37Q327.08 30.60 329.02 34.95Q330.96 39.30 330.96 44.20L330.96 44.20Q330.96 49.10 329.02 53.45Q327.08 57.80 323.71 61.03Q320.35 64.26 315.83 66.13Q311.30 68 306.20 68L306.20 68ZM303.55 54.13L305.73 54.13Q307.84 54.13 309.67 53.35Q311.51 52.56 312.87 51.24Q314.23 49.91 315.01 48.08Q315.79 46.24 315.79 44.20L315.79 44.20Q315.79 42.16 315.01 40.32Q314.23 38.49 312.87 37.16Q311.51 35.84 309.67 35.05Q307.84 34.27 305.73 34.27L305.73 34.27L303.55 34.27L303.55 54.13ZM336.53 68L336.53 20.40L366.25 20.40L366.25 33.73L351.36 33.73L351.36 37.74L366.25 37.74L366.25 50.52L351.36 50.52L351.36 54.67L366.38 54.67L366.38 68L336.53 68Z"/></svg><rect x='19.95' y='19.95' width='30.1' shape-rendering='crispEdges' height='30.1' fill="#FFF" /></svg><svg xmlns="http://www.w3.org/2000/svg" xmlns:xlink="http://www.w3.org/1999/xlink" version="1.1" x="67" y="67" width="70" height="70"><rect width="100%" height="100%" fill="#1A2A55" shape-rendering="crispEdges"/><circle cx="35" cy="35" r="29.75" shape-rendering='geometricPrecision' stroke="#FFF" stroke-width="10.5" fill="#1A2A55"/><rect x='23.86306819631188' y='23.86306819631188' shape-rendering='crispEdges' width='22.273863607376246' height='22.273863607376246' fill="#FFF" transform='rotate(45 35 35)'/></svg><svg xmlns="http://www.w3.org/2000/svg" xmlns:xlink="http://www.w3.org/1999/xlink" version="1.1" x="247" y="67" width="70" height="70"><rect width="100%" height="100%" fill="#1A2A55" shape-rendering="crispEdges"/><rect x="5.25" y="5.25" width='59.5' height='59.5' shape-rendering='crispEdges' fill="#1A2A55" stroke="#FFF" stroke-width='10.5'/><rect x='23.86306819631188' y='23.86306819631188' shape-rendering='crispEdges' width='22.273863607376246' height='22.273863607376246' fill="#FFF" transform='rotate(45 35 35)'/></svg><circle id="fccontainerShape" cx="192" cy="192" r="188" shape-rendering='geometricPrecision' stroke="#FFF" stroke-width="8" fill="#ffffff" fill-opacity="0"/></g></svg></svg>