<?xml version="1.0" standalone="no"?>
<!DOCTYPE svg PUBLIC "-//W3C//DTD SVG 20010904//EN"
 "http://www.w3.org/TR/2001/REC-SVG-20010904/DTD/svg10.dtd">
<svg version="1.0" xmlns="http://www.w3.org/2000/svg"
 width="235.000000pt" height="214.000000pt" viewBox="0 0 235.000000 214.000000"
 preserveAspectRatio="xMidYMid meet">

<g transform="translate(0.000000,214.000000) scale(0.100000,-0.100000)"
fill="#000000" stroke="none">
<path d="M590 2114 c-22 -57 -32 -128 -26 -178 13 -98 9 -94 79 -84 75 10 156
35 179 56 10 8 30 35 44 60 l27 45 -24 20 c-37 31 -179 95 -226 102 -40 6 -43
5 -53 -21z"/>
<path d="M1620 2121 c-57 -18 -141 -59 -174 -84 -19 -14 -19 -16 -3 -41 18
-27 78 -85 103 -99 8 -5 42 -13 77 -19 34 -5 69 -11 77 -13 8 -2 18 -4 22 -4
4 -1 -2 -20 -14 -43 -18 -34 -23 -60 -23 -128 0 -76 3 -89 27 -125 19 -29 28
-59 33 -106 l7 -67 -53 -27 c-30 -14 -79 -46 -110 -70 -31 -24 -60 -41 -64
-37 -5 4 -5 1 -1 -5 11 -19 -4 -38 -16 -22 -8 11 -9 10 -4 -4 3 -9 -4 -37 -16
-61 -21 -43 -21 -44 -86 -50 -54 -6 -68 -4 -84 11 -17 15 -39 18 -150 18 -116
0 -131 -2 -144 -19 -12 -17 -20 -18 -80 -10 -51 7 -70 14 -78 29 -29 53 -82
123 -112 148 -19 16 -31 33 -28 39 4 7 2 8 -4 4 -6 -3 -39 8 -72 26 l-62 33 7
57 c7 70 23 120 42 131 7 5 13 25 13 50 0 42 -17 117 -26 117 -14 0 -70 -35
-86 -54 -68 -82 -79 -259 -25 -413 6 -18 14 -33 18 -33 4 0 10 -8 13 -18 11
-32 96 -109 157 -142 32 -17 103 -42 156 -56 53 -13 99 -27 102 -29 2 -3 -10
-21 -28 -39 -40 -41 -38 -68 6 -77 18 -3 45 -15 60 -25 16 -10 32 -19 38 -19
5 0 9 -24 9 -53 l-1 -52 37 0 c36 0 38 -2 58 -52 l21 -53 0 66 c1 49 5 68 16
72 19 8 21 2 20 -65 0 -32 1 -58 3 -58 1 0 12 21 22 46 19 44 22 46 55 42 l35
-4 0 60 c0 32 3 56 7 53 3 -4 14 0 24 9 10 9 37 21 61 28 57 17 64 53 18 96
l-31 29 28 6 c215 45 343 121 396 237 l22 48 125 2 125 2 -123 3 -124 4 9 52
c4 29 8 104 8 167 0 134 -20 202 -84 287 -38 49 -39 52 -29 97 10 48 0 145
-21 199 -12 32 -25 33 -101 8z m-312 -1011 c17 -22 22 -22 85 -13 37 5 67 7
67 4 -1 -23 -18 -31 -98 -46 -13 -2 -32 -7 -42 -10 -10 -3 -25 1 -33 10 -23
22 -225 22 -241 0 -10 -13 -19 -14 -64 -5 -31 7 -50 16 -46 22 4 6 -1 8 -13 4
-13 -4 -25 0 -34 10 -12 15 -7 16 63 10 71 -7 77 -6 83 13 8 26 30 30 152 27
93 -2 104 -5 121 -26z m-98 -165 c14 -17 5 -51 -16 -59 -35 -13 -73 41 -47 67
12 12 50 7 63 -8z"/>
<path d="M1005 2043 c-16 -2 -47 -9 -67 -14 l-36 -9 23 -43 c13 -23 29 -61 36
-84 11 -37 16 -44 48 -50 49 -10 255 -10 314 0 43 8 47 11 47 36 0 25 17 91
34 132 6 14 -4 19 -57 28 -60 10 -276 13 -342 4z"/>
<path d="M1560 1576 c0 -2 11 -6 25 -8 14 -3 25 -1 25 3 0 5 -11 9 -25 9 -14
0 -25 -2 -25 -4z"/>
<path d="M858 1563 c6 -2 18 -2 25 0 6 3 1 5 -13 5 -14 0 -19 -2 -12 -5z"/>
<path d="M1448 1563 c7 -3 16 -2 19 1 4 3 -2 6 -13 5 -11 0 -14 -3 -6 -6z"/>
<path d="M1298 1553 c7 -3 16 -2 19 1 4 3 -2 6 -13 5 -11 0 -14 -3 -6 -6z"/>
<path d="M1626 1537 c3 -10 9 -15 12 -12 3 3 0 11 -7 18 -10 9 -11 8 -5 -6z"/>
<path d="M333 1303 c32 -2 81 -2 110 0 29 2 3 3 -58 3 -60 0 -84 -1 -52 -3z"/>
<path d="M168 1293 c6 -2 18 -2 25 0 6 3 1 5 -13 5 -14 0 -19 -2 -12 -5z"/>
<path d="M2173 1293 c9 -2 23 -2 30 0 6 3 -1 5 -18 5 -16 0 -22 -2 -12 -5z"/>
<path d="M2248 1283 c6 -2 18 -2 25 0 6 3 1 5 -13 5 -14 0 -19 -2 -12 -5z"/>
<path d="M158 1213 c7 -3 16 -2 19 1 4 3 -2 6 -13 5 -11 0 -14 -3 -6 -6z"/>
<path d="M1006 1143 c-6 -14 -5 -15 5 -6 7 7 10 15 7 18 -3 3 -9 -2 -12 -12z"/>
<path d="M430 1040 c-13 -9 -10 -14 15 -35 17 -14 32 -25 35 -25 3 0 18 -18
34 -40 l29 -39 30 30 30 30 -24 25 c-30 32 -79 59 -79 44 0 -6 -12 -10 -27 -8
-16 2 -27 8 -25 16 2 14 1 15 -18 2z"/>
<path d="M860 853 c-26 -8 -66 -12 -97 -9 -49 4 -52 3 -63 -24 -6 -15 -20 -37
-31 -49 l-20 -22 38 -16 c44 -20 195 -25 213 -7 14 14 26 130 14 136 -5 3 -29
-1 -54 -9z"/>
<path d="M1434 844 c-4 -14 -2 -49 3 -77 l10 -52 2 78 c1 79 -4 96 -15 51z"/>
<path d="M987 694 c-4 -4 -26 -8 -50 -8 -39 -1 -42 -3 -39 -26 1 -13 8 -28 15
-32 20 -13 55 -9 61 8 3 8 10 13 15 10 5 -3 11 0 14 7 6 16 -7 50 -16 41z"/>
<path d="M1350 663 c0 -16 4 -21 15 -17 9 4 15 0 15 -10 0 -11 9 -16 30 -16
24 0 33 6 40 26 15 40 13 41 -45 40 -50 0 -55 -2 -55 -23z"/>
<path d="M1048 573 c-2 -5 -5 -32 -7 -62 -1 -32 -12 -74 -27 -104 -14 -29 -20
-55 -15 -60 15 -15 88 12 115 43 26 31 46 87 46 128 0 13 -4 21 -9 18 -5 -3
-12 5 -15 19 -5 21 -12 25 -46 25 -21 0 -40 -3 -42 -7z"/>
<path d="M1220 565 c-7 -8 -9 -15 -4 -15 4 0 3 -5 -4 -12 -18 -18 -14 -74 9
-119 15 -30 32 -46 65 -60 24 -11 53 -17 64 -14 18 6 17 9 -11 63 -22 43 -29
70 -29 114 l0 58 -39 0 c-22 0 -44 -6 -51 -15z"/>
<path d="M900 540 c0 -43 -31 -97 -65 -112 -38 -17 -32 -38 13 -38 48 0 123
38 139 70 17 34 18 119 1 102 -7 -7 -24 -12 -38 -12 -14 0 -31 5 -38 12 -9 9
-12 4 -12 -22z"/>
<path d="M1350 524 c0 -32 3 -43 12 -38 7 4 8 3 4 -4 -21 -34 64 -92 133 -92
55 0 59 15 13 44 -40 25 -62 65 -62 113 0 21 -2 22 -20 11 -15 -10 -27 -10
-50 -1 l-30 11 0 -44z"/>
</g>
</svg>
